<svg width="44" height="58" viewBox="0 0 44 58" fill="none" xmlns="http://www.w3.org/2000/svg">
<path d="M27.3902 51.4967C25.8729 52.717 24.32 53.9244 22.8156 55.1964C22.1118 55.7904 18.2669 55.997 17.731 56.2262C16.7947 56.6265 16.1103 57.4853 15.0353 56.4877C14.8803 56.3424 14.4348 56.5103 14.1249 56.5458C14.0926 56.549 14.0797 56.6427 14.0474 56.6879C12.9562 58.0922 12.1523 56.068 11.1419 56.4457C9.39856 57.0946 9.39856 57.0882 8.70446 56.4231C7.80052 56.4231 7.18068 56.5426 6.62863 56.3973C5.61169 56.1261 4.65287 55.6516 3.64562 55.3416C0.162223 54.2698 0.310727 49.6952 2.59641 47.8615C3.61334 47.0448 4.81106 46.3216 6.04429 45.9181C10.3703 44.504 14.2443 42.567 17.0433 38.7479C19.0417 36.0199 19.5227 32.9142 19.8165 29.7666C20.2523 25.108 20.3556 20.4205 20.7656 15.7587C21.0142 12.9339 21.5953 10.1382 21.9956 7.32625C22.1441 6.28026 22.2377 5.22459 22.2765 4.17214C22.354 2.05111 22.9222 0.91473 25.069 0.620949C28.4749 0.149609 31.9454 -0.0311794 35.3804 0.00433251C37.6241 0.0301594 39.871 0.598351 42.0922 1.03741C43.1866 1.25371 43.574 2.0608 43.3254 3.20041C41.3206 12.3948 39.7096 21.6892 36.5329 30.5898C35.106 34.593 34.5507 38.6155 35.0382 42.8963C35.3094 45.2756 34.8897 47.8002 34.4087 50.1827C33.9373 52.5297 29.7921 53.5951 27.9875 52.01C27.8712 51.9099 27.755 51.8098 27.3902 51.4934V51.4967Z" fill="#470814"/>
</svg>
