<?xml version="1.0" encoding="UTF-8"?>
<svg id="Layer_1" data-name="Layer 1" xmlns="http://www.w3.org/2000/svg" viewBox="0 0 100 100">
  <path d="m56.17,77.09c-1.79,1.44-3.63,2.87-5.41,4.38-.83.7-5.38.95-6.01,1.22-1.11.47-1.92,1.49-3.19.31-.18-.17-.71.03-1.08.07-.04,0-.05.11-.09.17-1.29,1.66-2.24-.73-3.44-.29-2.06.77-2.06.76-2.88-.03-1.07,0-1.8.14-2.46-.03-1.2-.32-2.34-.88-3.53-1.25-4.12-1.27-3.94-6.68-1.24-8.85,1.2-.97,2.62-1.82,4.08-2.3,5.12-1.67,9.7-3.96,13.01-8.48,2.36-3.23,2.93-6.9,3.28-10.62.52-5.51.64-11.06,1.12-16.57.29-3.34.98-6.65,1.45-9.97.18-1.24.29-2.49.33-3.73.09-2.51.76-3.85,3.3-4.2,4.03-.56,8.13-.77,12.2-.73,2.65.03,5.31.7,7.94,1.22,1.29.26,1.75,1.21,1.46,2.56-2.37,10.88-4.28,21.87-8.03,32.4-1.69,4.74-2.34,9.49-1.77,14.56.32,2.81-.18,5.8-.74,8.62-.56,2.78-5.46,4.04-7.6,2.16-.14-.12-.27-.24-.71-.61h0Z" style="stroke-width: 0px;"/>
</svg>