<svg width="58" height="83" viewBox="0 0 58 83" fill="none" xmlns="http://www.w3.org/2000/svg">
<path d="M11.2467 82.6364C9.70243 67.5723 4.48499 53.5452 1.55454 39.0106C1.17951 37.1501 0.866975 35.2786 0.554443 33.5836C3.51062 32.896 6.33076 32.271 9.12884 31.5503C9.62889 31.4216 10.4562 30.8002 10.4047 30.5576C9.63257 26.8734 11.7357 23.6966 12.1659 20.222C12.8829 14.4346 14.0889 8.70976 15.0964 2.96285C15.3574 1.47006 16.0487 0.319203 17.6665 0.0397629C19.2255 -0.228647 19.9241 0.911175 20.641 1.97378C23.7737 6.60293 26.8181 11.2946 30.0905 15.8245C31.0796 17.1922 32.7599 18.0379 34.0137 19.2402C34.6461 19.8469 35.2455 20.6485 35.4992 21.4721C36.7235 25.4026 36.1978 24.8732 39.9665 23.9723C41.3858 23.6341 42.8345 23.3326 44.1765 22.7847C45.7134 22.156 46.5003 22.7516 46.8496 24.1194C47.6474 27.2521 48.3608 30.4031 49.0851 33.5505C51.5081 44.0626 53.7841 54.6078 56.3947 65.0721C57.7624 70.5653 57.983 70.341 52.534 71.7345C39.3819 75.1025 26.2703 78.6323 13.144 82.0959C12.5373 82.254 11.9379 82.4378 11.2467 82.6364ZM31.1347 26.1012C30.495 21.5603 28.8808 17.696 26.5056 14.1037C23.8509 10.0812 21.2771 6.00728 18.6702 1.9554C17.8062 0.609674 17.0046 1.10237 16.3502 2.0988C16.056 2.54737 15.9457 3.1614 15.8869 3.71661C15.2618 9.77237 14.4897 15.8171 14.1367 21.8876C13.9823 24.5753 14.6919 27.3109 15.0412 30.2671C20.7072 28.8 25.8474 27.469 31.1311 26.1012H31.1347Z" fill="#DCFF90"/>
</svg>
