<svg width="111" height="41" viewBox="0 0 111 41" fill="none" xmlns="http://www.w3.org/2000/svg">
<path d="M26.2706 4.23537C26.1482 3.11227 26.0901 2.09322 25.9156 1.09253C25.7718 0.254025 26.2094 -0.00303328 26.8765 2.69369e-05C27.4549 0.00308716 28.0303 0.146917 28.7157 0.244844C28.7892 1.49035 28.8932 2.6869 28.9208 3.88651C28.9391 4.7097 29.2054 5.07081 30.1081 5.10753C35.0994 5.31869 40.0875 5.64001 45.0787 5.82974C48.4297 5.95521 51.7837 5.90625 55.1377 5.98582C55.5845 5.99806 56.1047 6.21533 56.4505 6.50605C58.4029 8.13715 60.3278 9.80191 62.2313 11.4912C63.4737 12.5928 64.808 13.4313 66.5401 13.4099C67.1307 13.4007 67.4367 13.7129 67.1031 14.2056C66.5523 15.0196 67.1368 15.3593 67.6356 15.6683C68.8719 16.4365 70.1328 17.1709 71.4211 17.8533C71.9628 18.141 72.4187 18.4072 72.2749 19.0958C72.1341 19.7782 71.5711 19.7629 71.0294 19.7966C69.7686 19.8823 69.7104 19.9221 69.686 21.238C69.6554 22.97 69.6768 24.7052 69.686 26.4373C69.686 26.731 69.7533 27.0248 69.8114 27.5022C70.5795 26.8504 71.2742 26.3699 71.8342 25.7671C73.3337 24.1574 74.7751 22.4926 76.2501 20.8615C76.449 20.6412 76.6969 20.3719 76.9601 20.3199C82.1961 19.3039 87.4383 18.3124 92.6805 17.3209C93.8525 17.1005 94.7216 17.4066 95.6121 18.3522C97.993 20.8799 100.606 23.1873 103.003 25.6998C105.353 28.1632 107.553 30.7675 109.799 33.3289C109.986 33.54 110.108 33.8828 110.111 34.1674C110.139 35.9913 110.127 37.8152 110.127 39.7156C108.272 39.838 106.672 40.0246 105.068 40.0369C100.227 40.0797 95.3857 40.144 90.5475 40.0308C86.4223 39.9359 82.3063 39.5136 78.1811 39.4034C74.3681 39.3024 70.5489 39.4187 66.7328 39.4493C62.6046 39.483 58.4764 39.535 54.3512 39.5595C46.6211 39.6054 38.894 39.6788 31.1639 39.6605C27.3172 39.6513 23.4705 39.4248 19.6238 39.3606C17.2369 39.3208 14.8499 39.4126 12.4629 39.4187C11.2847 39.4187 10.1065 39.3361 8.92836 39.333C6.78621 39.3269 4.64711 39.333 2.50496 39.3728C1.91128 39.3851 1.66646 39.2351 1.70012 38.5894C2.01533 32.8637 2.30911 27.1381 2.60289 21.4124C2.62431 20.9962 2.60289 20.58 2.60289 20.0567C2.02757 20.2464 1.6022 20.3872 1.12174 20.5463C0.867743 19.9068 0.518878 19.3314 0.414831 18.7133C0.12411 16.9506 0.41177 15.5245 2.34889 14.6646C5.55906 13.2385 7.69203 10.4996 9.96884 7.9566C11.2296 6.54584 12.5731 5.20852 13.9257 3.88344C14.1919 3.62333 14.6846 3.44277 15.058 3.46726C18.464 3.69065 21.867 3.96607 25.2699 4.22313C25.5698 4.24455 25.8728 4.22313 26.2645 4.22313L26.2706 4.23537Z" fill="#470814"/>
</svg>
