<?xml version="1.0" encoding="UTF-8"?>
<svg id="Layer_1" data-name="Layer 1" xmlns="http://www.w3.org/2000/svg" viewBox="0 0 100 100">
  <path d="m53.41,88.38c.15-3.12.31-6.23.46-9.35-.1-.03-.2-.07-.29-.1-.25.43-.5.86-.66,1.12-2.76-3.61-5.65-7.2-8.32-10.94-1.77-2.49-1.14-3.81,2.08-4.46-2.5-1.87-4.85-3.59-7.14-5.38-.55-.44-.91-1.13-1.35-1.71.67-.43,1.28-1.01,2.01-1.25,1-.33,2.08-.39,3.5-.62-1.2-1.79-2.77-2.51-4.35-3.21-2.78-1.24-5.6-2.41-8.33-3.77-1-.5-2.03-1.28-2.58-2.21-.7-1.17-1.68-3.16-1.2-3.83.78-1.09,2.61-1.52,4.08-1.98.87-.27,1.89-.05,2.85-.05.04-.21.09-.41.13-.62-.61-.5-1.18-1.07-1.85-1.5-2.36-1.5-4.31-3.34-5.57-5.91-1.81-3.68-.51-5.91,3.53-5.82,2.68.06,2.89-.23,1.9-2.62-.12-.3-.35-.59-.35-.88.01-1.42-.3-3.04.3-4.17.27-.51,2.4-.04,3.67.02.3.01.6.16,1.15.31.11-.69.25-1.28.31-1.87.3-3.15.75-3.43,3.7-2.19,1.14-1.23.28-4.42,3.18-3.85,1.7.34,3.24,1.52,5.23,2.51,1.4-.72,2.75.07,4.05,2.38.17,0,.38.06.54,0,3.33-1.43,4.41-.63,4.08,3.05-.06.67-.08,1.35-.15,2.45,1.02-.51,1.65-.88,2.32-1.16,2.18-.92,3.84,0,3.8,2.35-.04,2.14-.55,4.27-.85,6.41-.1.72-.21,1.45-.36,2.5,1.52-.52,2.68-.99,3.88-1.32,2.52-.7,4.01.24,3.55,2.75-.4,2.16-1.63,4.21-2.7,6.19-.77,1.42-1.89,2.64-2.95,4.08,2.02-.18,3.67-.41,5.33-.46,1.3-.04,2.16.66,1.87,2.02-.28,1.32-.53,2.87-1.36,3.82-2.13,2.45-4.6,4.6-6.89,6.91-.67.68-1.18,1.51-1.77,2.27.11.16.23.32.35.48.89-.22,1.76-.54,2.66-.63,1.56-.15,3.16-.36,4.69-.16,1.76.23,2.42,1.52,1.52,3.09-1.01,1.74-2.16,3.59-3.72,4.78-3.39,2.59-5.9,5.77-7.95,9.44-.5.9-1.36,1.73-2.25,2.25-1.31.75-1.97,1.72-2.03,3.2-.06,1.79-.12,3.57-.24,5.35-.06.81-.28,1.6-.42,2.4l-1.06-.12h0Z" style="stroke-width: 0px;"/>
</svg>