<svg width="125" height="209" viewBox="0 0 125 209" fill="none" xmlns="http://www.w3.org/2000/svg">
<path d="M73.9999 208C74.4099 199.57 74.8299 191.14 75.2399 182.71C74.9799 182.62 74.7099 182.53 74.4499 182.44C73.7699 183.6 73.0899 184.76 72.6699 185.48C65.1899 175.7 57.3899 166.01 50.1699 155.89C45.3699 149.16 47.0799 145.58 55.7999 143.81C49.0299 138.74 42.6699 134.1 36.4699 129.25C34.9699 128.07 34.0099 126.19 32.8099 124.63C34.6099 123.47 36.2699 121.9 38.2399 121.26C40.9399 120.38 43.8799 120.21 47.6999 119.57C44.4399 114.74 40.2099 112.79 35.9299 110.89C28.3999 107.53 20.7699 104.37 13.3899 100.7C10.6899 99.36 7.90992 97.24 6.39992 94.72C4.49992 91.55 1.84992 86.18 3.14992 84.36C5.24992 81.42 10.2099 80.24 14.1799 79.01C16.5299 78.28 19.2999 78.88 21.8799 78.88C21.9999 78.32 22.1199 77.77 22.2399 77.21C20.5799 75.85 19.0399 74.31 17.2399 73.16C10.8599 69.09 5.58992 64.12 2.16992 57.18C-2.74008 47.23 0.799922 41.2 11.7299 41.43C18.9899 41.58 19.5499 40.82 16.8699 34.33C16.5399 33.53 15.9099 32.74 15.9099 31.95C15.9399 28.11 15.1099 23.73 16.7299 20.67C17.4499 19.3 23.2099 20.57 26.6699 20.72C27.4799 20.76 28.2799 21.14 29.7699 21.56C30.0799 19.7 30.4499 18.11 30.5999 16.51C31.4099 8.00003 32.6299 7.24003 40.6099 10.59C43.6899 7.27003 41.3699 -1.37997 49.2199 0.180033C53.8299 1.10003 57.9899 4.29003 63.3799 6.97003C67.1666 5.01003 70.8199 7.15337 74.3399 13.4C74.7999 13.4 75.3699 13.56 75.7899 13.38C84.7999 9.51003 87.7199 11.68 86.8199 21.63C86.6599 23.44 86.5999 25.27 86.4199 28.27C89.1699 26.88 90.8799 25.88 92.6899 25.12C98.5799 22.63 103.09 25.12 102.98 31.49C102.88 37.28 101.5 43.05 100.67 48.82C100.39 50.78 100.1 52.74 99.6899 55.58C103.8 54.17 106.95 52.9 110.2 52C117.01 50.11 121.04 52.66 119.8 59.43C118.73 65.28 115.4 70.83 112.49 76.19C110.41 80.02 107.38 83.32 104.5 87.22C109.97 86.72 114.44 86.12 118.91 85.97C122.42 85.85 124.76 87.75 123.97 91.44C123.21 95.02 122.54 99.2 120.29 101.78C114.52 108.4 107.84 114.22 101.65 120.48C99.8399 122.31 98.4499 124.57 96.8699 126.63C97.1799 127.06 97.4999 127.49 97.8099 127.93C100.21 127.34 102.57 126.46 105 126.22C109.22 125.82 113.55 125.25 117.7 125.79C122.46 126.41 124.26 129.9 121.8 134.15C119.08 138.86 115.95 143.85 111.74 147.07C102.57 154.07 95.7699 162.67 90.2399 172.61C88.8799 175.04 86.5599 177.3 84.1399 178.69C80.5899 180.73 78.7999 183.35 78.6599 187.34C78.4899 192.17 78.3399 197 77.9999 201.82C77.8499 204 77.2499 206.15 76.8599 208.31L73.9999 207.98V208Z" fill="black"/>
</svg>
