<svg width="57" height="36" viewBox="0 0 57 36" fill="none" xmlns="http://www.w3.org/2000/svg">
<path d="M35.0549 16.0941C33.4429 18.0492 32.073 19.8341 30.5701 21.4993C28.7267 23.5448 26.7343 25.4574 24.8883 27.4976C24.1993 28.2611 23.6594 29.1867 23.1859 30.1098C22.8348 30.7934 22.7443 31.6047 22.4677 32.3336C21.5526 34.7435 20.1029 35.8767 17.5759 35.6958C12.6761 35.3447 7.78966 34.818 2.90054 34.3392C2.32065 34.2833 1.75407 34.0652 1.22738 33.9349C0.905518 32.0011 2.79945 29.9954 0.905518 28.3994C5.1323 24.2817 9.48941 20.2038 13.6497 15.9398C18.4005 11.0693 22.9917 6.04454 27.6228 1.05966C28.7054 -0.105434 28.7294 -0.153314 29.7216 1.15276C29.8333 1.29906 29.9184 1.47462 30.0541 1.59166C34.4032 5.31037 36.9382 10.5985 41.1942 14.4103C46.2563 18.9457 51.2225 23.5847 56.2367 28.1733C56.3697 28.2956 56.5665 28.3488 56.7607 28.4473C55.444 29.4714 55.2764 30.6817 56.0292 32.5331C56.4894 33.6662 55.7206 35.1159 54.5343 35.1558C48.7593 35.3527 42.9818 35.5016 37.151 35.6666C36.5685 32.2218 35.8822 29.0777 35.5417 25.899C35.2039 22.7681 35.2145 19.6 35.0549 16.0941Z" fill="#470814"/>
</svg>
