<?xml version="1.0" encoding="UTF-8"?>
<svg id="Layer_1" data-name="Layer 1" xmlns="http://www.w3.org/2000/svg" viewBox="0 0 100 100">
  <path d="m77.94,51.41c-.09-.37-.18-.74-.27-1.11-.07-.28-.15-.56-.23-.86-.27,0-.51,0-.75,0-.51.02-1.02.06-1.52-.09-.12-.04-.28-.01-.4.04-.6.22-1.19.47-1.78.69-.14.05-.31.13-.43.09-.36-.12-.61.01-.84.26-.07.07-.16.13-.22.21-.58.62-1.29,1.03-2.07,1.35-.54.22-1.02.54-1.41.97-.62.66-1.2,1.35-1.78,2.05-.53.64-1.03,1.3-1.56,1.93-1.17,1.37-2.39,2.69-3.43,4.16-.34.48-.67.96-.96,1.47-.17.29-.34.57-.58.8-.27.27-.55.53-.85.77-.14.12-.32.21-.5.26-.9.24-1.68.67-2.31,1.36-.53.58-1.02,1.22-1.57,1.78-.85.86-1.74,1.68-2.62,2.53-.42-.06-.44,0-.46-.5-.04-.87-.07-1.73-.08-2.6-.02-1.59-.08-3.19.2-4.77.05-.28.13-.54.28-.78.28-.46.54-.92.81-1.39.22-.39.49-.74.84-1.03.49-.41,1-.8,1.43-1.27.49-.52.92-1.09,1.35-1.66.57-.75,1.21-1.44,1.92-2.07.4-.36.87-.63,1.19-1.07.11-.15.25-.29.38-.43.44-.43.89-.84,1.32-1.27.38-.38.73-.79,1.12-1.15.35-.32.66-.67.91-1.08.19-.32.35-.67.59-.93.59-.64,1.21-1.24,1.84-1.84.24-.23.52-.42.79-.61.16-.11.22-.26.26-.45.07-.4.16-.8.24-1.2.05-.26.16-.53.13-.79-.1-1-.25-2-.38-3-.1-.74-.25-1.49-.12-2.24,0-.04-.02-.09-.03-.15-.22.06-.25.23-.29.38-.18.63-.35,1.25-.54,1.88-.05.16-.12.31-.21.44-.14.21-.31.4-.46.59-.1.12-.19.24-.3.35-.77.73-1.54,1.45-2.3,2.18-.26.25-.51.5-.74.77-.54.63-1.05,1.28-1.6,1.9-.92,1.04-1.8,2.11-2.59,3.25-.14.2-.3.38-.42.59-.53.83-1.05,1.66-1.57,2.49-.23.37-.47.73-.68,1.11-.41.74-.78,1.49-1.2,2.22-.51.9-.95,1.83-1.38,2.77-.27.58-.46,1.22-.93,1.69-.25-.17-.25-.17-.19-.42.09-.41.21-.82.28-1.23.18-.97.39-1.93.51-2.9.13-1.05.12-2.12.25-3.17.14-1.15.21-2.31.27-3.47,0-.17.08-.35.17-.5.25-.38.54-.74.79-1.12.91-1.4,1.81-2.81,2.73-4.2.39-.59.78-1.19,1.31-1.69.75-.69,1.47-1.41,2.21-2.12.35-.34.67-.71,1.04-1.01.98-.8,1.98-1.56,2.97-2.35.15-.12.3-.24.42-.39.37-.48.81-.89,1.31-1.23.36-.25.5-.59.62-.97.04-.12.07-.26.16-.33.56-.46.6-1.16.85-1.76.02-.04,0-.1,0-.15.02-.25.02-.5.05-.76.04-.33.09-.66.13-.99.03-.26,0-.51-.2-.72-.06,0-.12,0-.18,0-.78.13-1.56.25-2.34.39-.26.05-.52.17-.78.17-.28,0-.52.08-.77.19-.14.06-.28.12-.43.17-.18.05-.37.13-.5-.1-.22.15-.42.28-.62.42-.51.36-1.02.73-1.54,1.06-.67.42-1.34.84-1.91,1.4-.22.21-.44.42-.66.63-.64.59-1.29,1.16-1.91,1.77-.91.91-1.73,1.92-2.42,3-.33.53-.58,1.1-.87,1.66-.07.13-.14.26-.2.38-.18-.02-.28-.04-.33-.2-.16-.46-.34-.91-.53-1.35-.06-.15-.16-.36-.28-.39-.25-.07-.33-.25-.44-.44-.13-.22-.08-.44-.02-.67.04-.15.08-.3.11-.45.12-.57.21-1.16.36-1.72.45-1.63.69-3.29.69-4.99,0-.41-.01-.82.03-1.22.05-.58.16-1.16.22-1.75.02-.17.01-.38-.07-.52-.22-.38-.32-.8-.43-1.22-.23-.82-.43-1.65-.66-2.48-.1-.36-.21-.71-.54-.95-.05-.04-.07-.1-.11-.16-.29-.44-.57-.88-.87-1.3-.11-.15-.18-.3-.2-.48-.2-1.41-.57-2.77-1.07-4.1-.47-1.25-1.08-2.42-1.61-3.64-.05-.11-.12-.21-.18-.32,0,.48.04.95.11,1.41.17,1.05.36,2.09.52,3.13.07.45.08.91.09,1.37,0,.11-.06.27-.15.32-.14.08-.3.03-.39-.13-.02-.03-.04-.06-.07-.09-.36-.43-.73-.85-1.09-1.28-.49-.57-.99-1.13-1.46-1.72-.37-.45-.8-.82-1.34-1.05-.28-.12-.56-.18-.94-.17.23.41.41.77.62,1.11.17.28.42.51.48.86.02.09.1.18.17.25.3.32.59.63.9.94.19.19.31.39.36.66.04.24.12.47.21.69.22.5.47.99.68,1.5.12.29.2.6.28.91.06.23.06.48.14.71.29.95.54,1.91.67,2.9.17,1.23.32,2.45.27,3.69-.03.92-.11,1.83-.17,2.75-.03.5.01,1.01-.21,1.5-.12.26-.19.32-.46.22-.18-.07-.34-.17-.53-.23-.18-.06-.25-.18-.31-.35-.17-.53-.39-1.05-.54-1.59-.16-.59-.34-1.18-.31-1.8.03-.66,0-1.33-.15-1.98-.08-.33-.17-.67-.2-1.01-.15-1.45-.28-2.9-.42-4.34-.03-.28-.08-.56-.19-.82-.32-.79-.79-1.48-1.4-2.07-.49-.47-1.03-.84-1.7-.97-.64-.13-1.28-.24-1.92-.34-.34-.05-.68-.06-1.04-.1.01.11.01.2.04.28.15.45.3.89.47,1.33.11.29.12.56.03.86-.1.34-.22.7-.2,1.04.03.58-.14,1.11-.32,1.64-.2.61-.39,1.21-.51,1.84-.08.46-.12.91.13,1.34.05.08.07.19.1.29.22.67.52,1.3.9,1.9.68,1.06,1.54,1.96,2.47,2.81.28.26.59.51.8.82.27.41.39.91.77,1.24-.34.3-.62.59-.69,1.03.07.07.14.15.22.21.81.7,1.64,1.37,2.54,1.96.31.2.37.43.31.77-.13.73-.21,1.47-.16,2.21,0,.13-.02.27-.03.4-.04.01-.08.03-.12.04-.08-.07-.17-.14-.24-.22-.5-.61-.99-1.23-1.5-1.83-.9-1.06-1.72-2.19-2.42-3.39-.42-.71-.78-1.47-1.16-2.2-.44-.85-.89-1.7-1.65-2.32-.15-.12-.26-.29-.42-.39-.4-.25-.48-.67-.61-1.06-.08-.25-.13-.52-.2-.78-.19-.62-.36-1.25-.58-1.86-.07-.21-.13-.41-.11-.63.02-.42.03-.85-.17-1.24-.18-.35-.24-.72-.23-1.11,0-.65-.15-1.26-.3-1.89-.04-.17-.09-.36-.34-.46-.05.34-.1.64-.12.94-.03.4-.13.77-.33,1.13-.16.3-.31.62-.37.96-.12.76-.16,1.52-.26,2.28-.05.42-.01.81.11,1.21.06.21.11.42.13.63.01.12-.01.27-.08.35-.04.05-.21,0-.31-.03-.42-.18-.84-.37-1.3-.43-.4-.05-.8-.16-1.2-.22-.26-.04-.53-.06-.79.14.06.59.12,1.19.18,1.78.01.15.04.31.02.46-.03.27.05.5.17.73.15.29.3.59.45.89.04.09.12.22.08.28-.11.2.02.37.04.55.02.25.1.51.07.75-.1.74.08,1.42.41,2.07.28.54.55,1.1.82,1.64.09.18.16.36.11.58-.04.19,0,.38.13.54.26.33.51.67.77,1,.09.12.18.25.29.36.27.24.56.47.84.7.72.63,1.43,1.27,2.17,1.89.51.43.96.91,1.36,1.44,1.04,1.39,2.08,2.77,3.23,4.08.82.93,1.67,1.83,2.54,2.7.29.29.61.54.88.85.59.67,1.17,1.35,1.74,2.03.66.78,1.31,1.57,1.97,2.35.19.23.32.48.4.77.11.41.27.8.41,1.19.14.37.29.74.44,1.1.13.31.09.63.07,1.03-.18-.25-.31-.42-.44-.59-.6-.78-1.17-1.58-1.8-2.33-.8-.96-1.86-1.62-2.88-2.32-.54-.37-1.12-.7-1.55-1.24-.67-.85-1.39-1.67-2.05-2.53-.49-.63-.99-1.28-1.37-1.98-.4-.75-.67-1.57-1-2.36-.07-.18-.14-.36-.24-.52-.16-.27-.33-.33-.64-.29-.42.07-.74.32-1.07.57-.15.12-.17.25-.15.43.11.98.54,1.85.89,2.75.03.08.09.16.14.23.21.28.45.54.73.77.45.39.85.84,1.26,1.28.53.56,1.1,1.06,1.73,1.49.55.38,1.15.7,1.63,1.19.37.38.77.74,1.15,1.12.24.23.49.45.7.69.76.86,1.5,1.74,2.26,2.6.44.49.94.93,1.37,1.43.57.67,1.11,1.36,1.42,2.21.08.22.18.46.34.63.42.49.65,1.03.69,1.69.08,1.05.29,2.1.26,3.16-.02.69-.08,1.37-.26,2.08-.11-.05-.22-.07-.29-.12-.31-.22-.61-.45-.92-.69-.07-.05-.14-.11-.19-.19-.23-.38-.46-.76-.69-1.15-.16-.26-.33-.52-.47-.79-.31-.6-.66-1.19-.89-1.81-.27-.73-.45-1.49-.64-2.24-.29-1.18-.63-2.34-1.19-3.43-.19-.37-.37-.73-.78-.91-.04-.02-.08-.06-.11-.1-.24-.33-.51-.64-.72-.99-.28-.45-.53-.93-.79-1.4-.12-.21-.28-.34-.5-.45-.18-.08-.35-.2-.5-.33-.32-.29-.61-.61-.95-.89-.56-.46-1.14-.91-1.85-1.13-.34-.11-.69-.19-1.03-.31-.24-.08-.47-.05-.71,0-.6.14-1,.53-1.34,1.02-.17.24-.35.46-.53.69-.33-.11-.62-.24-.91-.31-.22-.05-.46-.1-.67-.05-.21.05-.4.05-.6.02-.28-.05-.55-.12-.82-.18-.61-.14-1.21-.3-1.83-.41-.37-.06-.77-.1-1.14-.04-.37.06-.73.05-1.1.05-.41,0-.83-.03-1.21.07-.47.13-.92.23-1.39.16-.51-.08-.8.33-1.21.47-.13.05-.23.19-.34.3-.04.04-.09.08-.08.12.02.22-.16.3-.29.41-.11.1-.22.22-.34.3-.3.2-.34.48-.22.77.08.21.22.39.37.56.13.15.32.25.46.4.1.11.23.29.19.38-.12.3.08.42.24.58.22.21.47.41.65.65.24.33.55.54.92.72,1.46.69,2.96,1.24,4.51,1.7,1.89.56,3.78,1.15,5.68,1.71.3.09.46.27.57.55.18.45.39.89.62,1.31.48.9.98,1.79,1.47,2.68.22.4.42.82.66,1.21.28.47.58.93.88,1.39.23.35.47.7.72,1.04.5.7,1,1.38,1.49,2.09.5.73.98,1.47,1.46,2.2.63.96,1.32,1.89,1.89,2.88.7,1.21,1.52,2.32,2.46,3.35.41.45.77.92,1.1,1.43l.55,1.17s1.93,8.72,3.26,4.22c.16-.54-.01-1.12-.02-1.68,0-.56-.01-1.13.09-1.67.14-.68.09-1.34-.02-2.01-.14-.84-.09-1.68.01-2.51.05-.39.28-.7.44-1.05.46-1.02,1.1-1.89,2.06-2.5.62-.4,1.23-.82,1.87-1.2.67-.4,1.34-.8,2.05-1.11.53-.24,1.02-.52,1.47-.87.88-.69,1.76-1.39,2.65-2.08.27-.21.55-.33.89-.39.59-.1,1.17-.25,1.75-.4.15-.04.29-.11.41-.2.35-.27.75-.43,1.15-.59.29-.12.58-.24.84-.35.03-.22.02-.43.09-.59.13-.31.16-.61.11-.94-.03-.23,0-.43.14-.65.14-.21.31-.36.5-.51,1.01-.76,2.02-1.52,3.01-2.3.64-.5,1.23-1.07,1.88-1.57.42-.31.67-.71.88-1.17.21-.47.47-.93.76-1.37.3-.46.65-.88.98-1.32.23-.31.42-.63.27-1.06-.04-.12.02-.3.07-.43.32-.74.65-1.47.97-2.21.12-.28.22-.57.28-.87.07-.31.07-.63.13-.94.06-.32.07-.63,0-.95Z" style="stroke-width: 0px;"/>
</svg>