<svg width="53" height="67" viewBox="0 0 53 67" fill="none" xmlns="http://www.w3.org/2000/svg">
<mask id="mask0_146_23" style="mask-type:luminance" maskUnits="userSpaceOnUse" x="0" y="0" width="53" height="67">
<path d="M52.1508 0H0V66.619H52.1508V0Z" fill="white"/>
</mask>
<g mask="url(#mask0_146_23)">
<path d="M41.5819 37.8176C41.5917 37.8233 41.6002 37.8317 41.61 37.8345C41.6381 37.8387 41.655 37.8261 41.6564 37.7979C41.6564 37.7909 41.6353 37.7769 41.6325 37.7797C41.6142 37.7909 41.5988 37.805 41.5819 37.8176ZM39.2448 21.0771C39.2012 21.0884 39.1759 21.0898 39.1548 21.1024C39.1351 21.1151 39.1169 21.1348 39.1056 21.1559C39.0972 21.1741 39.1647 21.1966 39.2012 21.1854C39.2139 21.1826 39.2251 21.1784 39.2364 21.1727C39.249 21.1671 39.2603 21.1629 39.2701 21.1545C39.2884 21.139 39.3067 21.1207 39.325 21.1052C39.2912 21.0926 39.2603 21.0827 39.2448 21.0771ZM41.4961 37.3831C41.5031 37.3747 41.5144 37.3662 41.5186 37.355C41.5214 37.348 41.5186 37.3325 41.513 37.3269C41.4174 37.2453 41.3246 37.1595 41.1994 37.1188C41.16 37.1061 41.1108 37.1188 41.108 37.1553C41.1052 37.1778 41.108 37.2144 41.1221 37.2214C41.2191 37.2763 41.3189 37.3297 41.4216 37.3775C41.4427 37.3873 41.4708 37.3803 41.4961 37.3803M40.9252 38.3829C40.8872 38.3238 40.8535 38.2578 40.8043 38.2029C40.7354 38.1242 40.6426 38.0876 40.5371 38.0834C40.509 38.0834 40.4682 38.1368 40.478 38.1664C40.4851 38.1889 40.4907 38.217 40.5076 38.231C40.613 38.321 40.7354 38.3857 40.8676 38.4279C40.8788 38.4307 40.8957 38.4279 40.9041 38.4223C40.9126 38.4167 40.9154 38.3998 40.9238 38.3829M42.6506 35.6915C42.6309 35.6577 42.6098 35.5917 42.5662 35.5551C42.5367 35.5312 42.4706 35.5579 42.4228 35.5481C42.3483 35.534 42.2765 35.5087 42.202 35.4918C42.1669 35.4834 42.1247 35.4735 42.0923 35.4848C42.06 35.496 42.0234 35.5256 42.0122 35.5565C42.0023 35.5846 42.0122 35.6409 42.0347 35.6563C42.1401 35.7266 42.2498 35.7899 42.3595 35.8518C42.4298 35.8898 42.5072 35.8799 42.5831 35.8687C42.6281 35.8616 42.6675 35.8026 42.659 35.7534C42.6562 35.7407 42.6562 35.7295 42.652 35.6929M41.0461 37.9639L41.0574 37.947L41.0377 37.9597C41.0757 37.9034 41.1024 37.8401 41.0602 37.7825C41.0138 37.7192 40.9702 37.6615 40.9646 37.5786C40.9646 37.5673 40.921 37.5505 40.8985 37.5505C40.8774 37.5505 40.8465 37.5659 40.8366 37.5828C40.7987 37.6517 40.7776 37.7262 40.8015 37.805C40.8226 37.8837 40.8957 37.8795 40.9533 37.8992C40.9871 37.9118 41.0166 37.9428 41.0475 37.9625M-0.000117337 12.2829C0.147531 12.1859 0.296586 12.1113 0.45689 12.0579C0.517355 12.0368 0.577821 12.0143 0.638286 11.9904C0.683284 11.9721 0.719844 11.9117 0.710001 11.8667C0.676253 11.7162 0.641099 11.5657 0.608757 11.4139C0.598913 11.3647 0.591883 11.3112 0.598913 11.262C0.604538 11.2283 0.628443 11.1875 0.656567 11.1678C0.698752 11.1397 0.749374 11.1242 0.79859 11.1087C1.06998 11.0272 1.34278 10.947 1.61558 10.8655C1.87431 10.7867 2.13586 10.715 2.38616 10.6081C2.46913 10.573 2.55772 10.5519 2.6449 10.5238C3.07519 10.3874 3.50688 10.2552 3.93717 10.116C4.0117 10.0935 4.08201 10.0611 4.15232 10.0288C4.2156 10.0007 4.25075 9.94724 4.26903 9.88255C4.2845 9.83334 4.30137 9.78271 4.30278 9.73209C4.30559 9.60413 4.30981 9.47336 4.29575 9.34539C4.26762 9.10213 4.23247 8.85886 4.19029 8.61699C4.14107 8.32451 4.0792 8.03484 4.02857 7.74235C3.99342 7.53987 3.9667 7.33456 3.93717 7.13067C3.86827 6.66382 3.8514 6.77069 4.26762 6.58367C4.30278 6.56679 4.34215 6.55554 4.37871 6.55273C4.40121 6.55273 4.43496 6.56539 4.4448 6.58226C4.4898 6.66101 4.5348 6.73835 4.56573 6.82272C4.81885 7.51315 5.09446 8.19655 5.30538 8.90245C5.31241 8.92495 5.32929 8.94604 5.34335 8.96713C5.34757 8.97416 5.36304 8.97838 5.37147 8.97557C5.38272 8.97135 5.3996 8.96291 5.40241 8.95307C5.40944 8.9151 5.41928 8.87714 5.41506 8.84058C5.40241 8.73793 5.38553 8.63668 5.36725 8.53403C5.30538 8.19092 5.2407 7.84922 5.18164 7.50612C5.14227 7.26285 5.11977 7.01958 5.14086 6.7735C5.14789 6.6821 5.29273 6.5696 5.39397 6.57664C5.41647 6.57945 5.446 6.58929 5.46287 6.60476C5.491 6.63007 5.5135 6.66241 5.53318 6.69475C5.64286 6.87193 5.72864 7.05895 5.79614 7.25582C5.86223 7.45128 5.92129 7.64955 5.98597 7.84641C6.11815 8.25139 6.25033 8.65637 6.38392 9.05994C6.40361 9.12041 6.43595 9.17665 6.45563 9.22306C6.59485 9.31305 6.73124 9.33274 6.87749 9.30743C6.95342 9.29337 7.03076 9.28071 7.10529 9.26524C7.73807 9.13166 8.36803 8.99807 8.9994 8.86448C9.02472 8.85886 9.05003 8.85464 9.07534 8.84761C9.41282 8.76183 9.42688 8.78855 9.3622 8.41451C9.26236 7.8436 9.19346 7.26566 9.10909 6.69054C9.09081 6.56257 9.05987 6.43742 9.04018 6.30946C8.99097 6.00151 9.00222 5.69215 9.02753 5.3842C9.03034 5.35748 9.07674 5.32092 9.10768 5.3153C9.14002 5.30827 9.19205 5.32373 9.20892 5.34904C9.27501 5.44326 9.33548 5.54169 9.38891 5.64434C9.50563 5.87495 9.62234 6.10557 9.72921 6.3404C9.78827 6.46836 9.82764 6.60616 9.87123 6.74116C9.99216 7.10817 10.1131 7.47659 10.234 7.84501C10.2411 7.8675 10.2621 7.88719 10.2832 7.91953C10.3057 7.89 10.3465 7.86047 10.3423 7.83657C10.3339 7.74798 10.3128 7.65939 10.2917 7.57221C10.2523 7.40909 10.2073 7.24738 10.1665 7.08426C10.1272 6.93521 10.0878 6.78475 10.0456 6.63569C9.94717 6.27431 9.87264 5.9073 9.8628 5.53185C9.8628 5.48123 9.87123 5.4292 9.88389 5.37998C9.88951 5.35748 9.91201 5.32795 9.9317 5.32373C9.99357 5.30827 10.0583 5.30686 10.1215 5.29561C10.1961 5.28295 10.2509 5.31389 10.2832 5.37295C10.4154 5.60919 10.549 5.84402 10.6587 6.09291C10.8317 6.48383 10.9568 6.89021 11.0918 7.29378C11.1284 7.40347 11.1691 7.51174 11.2099 7.62142C11.2324 7.67767 11.2788 7.70579 11.328 7.70017C12.1605 7.60033 12.9887 7.46674 13.8057 7.27129C13.8802 7.25301 13.9562 7.23754 14.0307 7.21644C14.1558 7.18129 14.2023 7.10254 14.1713 6.98724C14.1587 6.93802 14.1418 6.8874 14.1277 6.83818C14.0251 6.4782 13.9182 6.11963 13.8226 5.75683C13.7438 5.45732 13.6665 5.1564 13.6862 4.84282C13.6862 4.81751 13.696 4.7936 13.7017 4.76829C13.8057 4.70361 13.8563 4.83438 13.9463 4.83298C14.0349 4.83298 14.1235 4.85266 14.2163 4.86532C14.3316 5.05937 14.4104 5.26327 14.4976 5.46435C14.5847 5.66543 14.6677 5.86933 14.7521 6.07182C14.7703 6.11541 14.8266 6.13931 14.8828 6.12947C14.9321 6.11963 14.9827 6.06479 14.9771 6.02401C14.9644 5.94807 14.9503 5.87214 14.9335 5.79621C14.873 5.50654 14.8097 5.21546 14.7478 4.92438C14.7211 4.79782 14.7197 4.67127 14.731 4.54049C14.7436 4.42238 14.7999 4.35066 14.9011 4.30285C14.9363 4.28598 14.9714 4.27051 15.0066 4.25504C15.0952 4.29722 15.1402 4.37456 15.1824 4.45472C15.4003 4.87938 15.6183 5.30264 15.7687 5.75824C15.8208 5.91573 15.9065 6.06338 15.9867 6.21103C16.0331 6.2954 16.1147 6.33618 16.2159 6.3179C16.7109 6.22931 17.2073 6.14494 17.7036 6.05635C17.9202 6.01838 18.1367 5.97901 18.3519 5.93542C18.477 5.91151 18.6036 5.88198 18.7287 5.84964C18.7639 5.8398 18.7934 5.81027 18.8244 5.78918C18.8342 5.78215 18.8412 5.76808 18.8483 5.75824C18.9186 5.66825 18.9889 5.57966 19.0662 5.48404C18.9143 4.94828 18.844 4.39988 18.7737 3.84866C18.7372 3.56601 18.6894 3.28759 18.6472 3.00636C18.6416 2.96839 18.6345 2.9262 18.6444 2.89105C18.6542 2.8573 18.6781 2.81933 18.709 2.80246C18.7892 2.75606 18.875 2.73356 18.9776 2.78559C19.3137 3.51399 19.6202 4.26629 19.8607 5.02984C19.9409 5.09453 20.0238 5.00453 20.0913 5.05797C20.1194 5.08187 20.1405 5.08187 20.1476 5.04531C20.1574 4.98203 20.1743 4.91735 20.1658 4.85548C20.149 4.72751 20.1279 4.59955 20.0941 4.4744C19.9648 3.98365 19.9662 3.47742 19.9423 2.97542C19.9366 2.87558 19.9634 2.77293 19.9802 2.67169C19.983 2.65341 20.014 2.63372 20.0365 2.62528C20.0716 2.61263 20.118 2.60419 20.1419 2.63934C20.194 2.71387 20.2474 2.78699 20.2826 2.86714C20.4907 3.32837 20.6496 3.80366 20.7593 4.29863C20.793 4.44909 20.8366 4.59815 20.8774 4.7472C20.8872 4.78657 20.9547 4.82595 20.9997 4.82173C21.077 4.8147 21.1544 4.80767 21.2289 4.79361C21.7872 4.69095 22.3454 4.58408 22.9037 4.48143C23.1469 4.43784 23.379 4.3605 23.6124 4.28457C23.7108 4.25223 23.8064 4.21567 23.9049 4.18473C24.0919 4.12427 24.1327 4.09474 24.0806 3.87678C24.0399 3.70241 24.0117 3.52523 23.9583 3.35228C23.8922 3.14416 23.8542 2.9262 23.8106 2.71106C23.7572 2.45795 23.708 2.20624 23.6602 1.95172C23.6419 1.86314 23.6264 1.77455 23.6194 1.68315C23.6068 1.5369 23.7966 1.41035 23.9456 1.46659C23.9681 1.47363 23.9949 1.49331 24.0047 1.5144C24.1003 1.72674 24.2016 1.93485 24.2845 2.1514C24.4026 2.46639 24.5067 2.78418 24.6164 3.10198C24.6698 3.26087 24.7204 3.42118 24.7781 3.57867C24.7908 3.61242 24.8175 3.64476 24.8456 3.66866C24.8625 3.68132 24.8948 3.68554 24.9159 3.67851C24.937 3.67148 24.9665 3.64757 24.9665 3.62929C24.9722 3.43665 24.9567 3.24681 24.9173 3.05557C24.8611 2.77715 24.6065 1.87439 24.5601 1.59315C24.5489 1.52847 24.5897 1.46941 24.6544 1.44269C24.7486 1.40472 24.8484 1.37379 24.9412 1.3302C25.1184 1.24442 25.1451 1.24723 25.2056 1.42582C25.2801 1.64518 25.5571 2.4917 25.6246 2.71387C25.6654 2.85027 25.7062 2.98667 25.747 3.12166C25.7723 3.20041 25.8257 3.25384 25.9044 3.27915C26.0662 3.32978 26.2293 3.3579 26.3994 3.31993C27.0167 3.18072 27.6326 3.04292 28.2499 2.90371C28.3006 2.89246 28.3484 2.87136 28.3962 2.8559C28.4468 2.77715 28.4848 2.69278 28.5466 2.6295C28.6648 2.50857 28.6591 2.37217 28.5959 2.2428C28.5396 2.12328 28.5017 2.00235 28.4749 1.87579C28.4018 1.54815 28.3343 1.21911 28.2626 0.891469C28.2528 0.840847 28.2345 0.790224 28.2373 0.739602C28.2415 0.589141 28.1768 0.434462 28.2499 0.286813C28.4088 0.195412 28.5804 0.156039 28.7702 0.150414C28.9362 0.404932 29.0908 0.655231 29.1752 0.943497C29.2652 1.25286 29.3454 1.56643 29.4311 1.8772C29.4508 1.95173 29.4747 2.02485 29.5 2.09797C29.5141 2.13875 29.5549 2.14718 29.5942 2.14578C29.6435 2.14156 29.7039 2.08953 29.7011 2.05156C29.6828 1.89829 29.6716 1.74361 29.6421 1.59174C29.6041 1.38925 29.545 1.18958 29.5057 0.988495C29.4733 0.823972 29.2708 0.286813 29.2511 0.119479C29.2483 0.0857304 29.2694 0.0491698 29.2793 0.00979694C29.3608 0.00417224 29.4382 0.00276607 29.5155 -0.00707716C29.6674 -0.0225451 29.7574 0.0547945 29.8108 0.186975C29.9219 0.462585 30.2158 1.10802 30.3269 1.38363C30.3606 1.46659 30.3972 1.54956 30.4365 1.63112C30.4984 1.75767 30.6081 1.8097 30.7558 1.78439C30.805 1.77595 30.8528 1.75064 30.902 1.7422C30.9203 1.73939 30.9611 1.76049 30.9625 1.77455C30.9793 1.86595 31.0426 1.86314 31.1087 1.85329C31.2268 1.83782 31.3309 1.77736 31.4223 1.70986C31.6473 1.54393 31.9004 1.46519 32.1675 1.41035C32.5219 1.33723 32.872 1.25004 33.225 1.16849C33.3248 1.14599 33.4261 1.12068 33.5273 1.10099C33.6356 1.0799 33.6918 1.11364 33.7326 1.22473C33.7692 1.32176 33.7987 1.4216 33.8381 1.51581C33.8718 1.59877 33.914 1.67752 33.9548 1.76611C34.3232 1.77033 34.6649 1.61846 35.0151 1.61143C35.1079 1.68877 35.1529 1.77877 35.1866 1.88001C35.3188 2.27093 35.4524 2.66184 35.586 3.05276C35.7828 3.62648 35.9797 4.2002 36.1737 4.77532C36.3608 5.32655 36.5422 5.87777 36.7264 6.42758C36.8051 6.66101 36.8825 6.89302 36.9598 7.12645C37.1637 7.73814 37.3676 8.35123 37.5701 8.96432C37.7726 9.57601 37.9736 10.1905 38.1733 10.805C38.3153 11.2479 38.463 11.6881 38.5938 12.1338C38.6627 12.3673 38.6992 12.6105 38.7822 12.8426C38.9706 13.3783 39.1548 13.9155 39.3362 14.454C39.5218 15.0052 39.7018 15.5579 39.8832 16.1091C39.9114 16.1949 39.9367 16.2807 39.9662 16.3678C40.2474 17.2129 40.5329 18.0566 40.8099 18.9032C41.1207 19.8481 41.4272 20.7931 41.7338 21.7394C42.0417 22.6984 42.3454 23.6589 42.6534 24.6179C42.8939 25.3674 43.1427 26.1154 43.3832 26.8649C43.4535 27.0871 43.5041 27.3135 43.5702 27.5357C43.6757 27.8957 43.7854 28.2542 43.8951 28.6114C44.0694 29.1795 44.2466 29.7462 44.4224 30.3129C44.7064 31.2255 44.9933 32.1367 45.2787 33.0493C45.2942 33.0985 45.3097 33.1477 45.3251 33.1969C45.5782 34.0097 45.8285 34.8253 46.0845 35.6381C46.3474 36.4761 46.616 37.3114 46.8818 38.1481C46.983 38.4687 47.0786 38.7907 47.1799 39.1113C47.4344 39.91 47.6917 40.7087 47.9477 41.5088C48.0137 41.717 48.0756 41.9279 48.1417 42.1374C48.2359 42.4327 48.3301 42.728 48.4257 43.0219C48.4693 43.1583 48.5157 43.2919 48.5579 43.4283C48.7042 43.8825 48.849 44.3381 48.9967 44.7923C49.209 45.456 49.4213 46.1211 49.6393 46.782C49.8179 47.322 50.0077 47.8563 50.1919 48.3935C50.355 48.8702 50.5153 49.3469 50.6813 49.8221C50.8683 50.3579 51.0581 50.8937 51.2479 51.428C51.2564 51.4519 51.2662 51.4772 51.2747 51.5011C51.4406 51.9905 51.6079 52.4784 51.7753 52.9678C51.8765 53.2602 51.982 53.5513 52.0804 53.8452C52.1999 54.1968 52.1957 54.1869 51.8442 54.2882C51.3604 54.4288 50.8781 54.5764 50.3972 54.7213C50.3114 54.748 50.2285 54.7831 50.1582 54.8084C50.116 54.8675 50.1216 54.9181 50.1357 54.9702C50.1708 55.0939 50.2088 55.2176 50.2467 55.3414C50.3311 55.6142 50.3916 55.8898 50.3775 56.1781C50.3705 56.2906 50.3424 56.3341 50.2299 56.3763C50.206 56.3848 50.1807 56.3946 50.1567 56.4016C49.6547 56.569 49.1513 56.7349 48.6507 56.905C48.0644 57.1019 47.478 57.3058 46.8916 57.5027C46.3657 57.6799 45.8384 57.8528 45.3111 58.0286C44.6628 58.2451 44.0146 58.4631 43.3663 58.6825C43.3298 58.6951 43.2932 58.7092 43.2566 58.7204C42.645 58.9229 42.0305 59.1226 41.4202 59.3293C40.9055 59.5023 40.3951 59.6822 39.8832 59.8594C39.8214 59.8805 39.7609 59.9002 39.699 59.9213C38.7442 60.2419 37.7894 60.5597 36.836 60.8817C36.3847 61.0364 35.9375 61.2037 35.4861 61.3612C35.0347 61.5187 34.582 61.6692 34.1306 61.8253C33.6412 61.994 33.1547 62.1641 32.6667 62.3343C32.5571 62.3723 32.4502 62.4173 32.3405 62.4524C31.5896 62.6915 30.8486 62.9572 30.1047 63.2103C29.531 63.4058 28.9544 63.5914 28.3793 63.7869C27.9153 63.9458 27.4541 64.1117 26.99 64.272C26.6118 64.4028 26.2335 64.5307 25.8538 64.6587C25.3406 64.8331 24.8273 65.0074 24.3141 65.1818C23.7277 65.3815 23.1427 65.584 22.5549 65.7808C21.932 65.9918 21.3077 66.1985 20.6819 66.4038C20.6327 66.4206 20.5821 66.4333 20.5329 66.4459C20.4794 66.4586 20.4288 66.453 20.3965 66.4038C20.3416 66.3194 20.2643 66.2885 20.1658 66.2885C19.9844 66.2885 19.8059 66.318 19.6301 66.3616C19.3545 66.4305 19.0789 66.5022 18.8033 66.5683C18.7034 66.5908 18.6008 66.602 18.4981 66.6091C18.3955 66.6161 18.3252 66.5598 18.2872 66.4713C18.252 66.3883 18.2239 66.3011 18.1972 66.2153C18.1255 65.9805 18.0566 65.7457 17.9863 65.5108C17.9385 65.3519 17.9005 65.3154 17.7388 65.3393C17.4955 65.3758 17.2551 65.4208 17.0132 65.463C16.9485 65.4729 16.8866 65.4883 16.8234 65.4968C16.7699 65.5052 16.7221 65.4841 16.6827 65.4476C16.5885 65.359 16.5042 65.2605 16.4549 65.1382C16.3593 64.8992 16.2525 64.6643 16.1765 64.4154C15.929 63.5998 15.7083 62.7772 15.4875 61.9546C15.413 61.6804 15.323 61.4104 15.24 61.139C15.1613 60.8803 15.0853 60.6188 15.0052 60.36C14.8125 59.7315 14.6185 59.1015 14.423 58.4715C14.1966 57.7445 13.973 57.0161 13.7396 56.292C13.6018 55.8617 13.4457 55.437 13.2995 55.0095C13.2278 54.8014 13.1561 54.5947 13.0872 54.3866C12.8706 53.7369 12.6541 53.0873 12.4417 52.4376C12.3264 52.0819 12.2181 51.7233 12.1071 51.3661C12.0719 51.255 12.0424 51.1425 12.003 51.0329C11.8638 50.6307 11.7386 50.2229 11.6121 49.8165C11.3196 48.8659 11.0159 47.9196 10.7178 46.9704C10.6207 46.6625 10.5321 46.3531 10.4337 46.0452C10.1961 45.3083 9.9542 44.5729 9.71655 43.8347C9.50985 43.1963 9.30454 42.5564 9.09924 41.9166C9.04721 41.7577 8.99519 41.5974 8.94316 41.4385C8.75895 40.8873 8.57474 40.3361 8.39194 39.7863C8.2246 39.2829 8.06008 38.7794 7.89275 38.2774C7.68323 37.6531 7.47089 37.0302 7.25997 36.4058C7.03779 35.7449 6.8114 35.0868 6.59766 34.4217C6.49219 34.0913 6.41626 33.7482 6.31783 33.4149C5.99863 32.3251 5.67661 31.2353 5.3546 30.1455C5.12117 29.3539 4.88915 28.5594 4.6501 27.7691C4.3534 26.7932 4.04967 25.8201 3.75156 24.8443C3.63063 24.4491 3.51391 24.0526 3.39298 23.6588C3.22284 23.1034 3.05269 22.548 2.87973 21.9925C2.59006 21.056 2.31867 20.1139 2.05009 19.1689C1.8026 18.2999 1.53824 17.4351 1.28091 16.5689C1.13748 16.0866 0.996861 15.6029 0.847806 15.122C0.625631 14.4062 0.399236 13.6933 0.174248 12.9775C0.120814 12.806 0.0645667 12.6344 0.0153506 12.4601C-0.00152351 12.401 0.00269501 12.3349 -0.00292969 12.2688" fill="#470814"/>
<path d="M42.6505 35.6915C42.6547 35.7281 42.6561 35.7407 42.6575 35.752C42.6645 35.8012 42.6265 35.8603 42.5816 35.8673C42.5056 35.8799 42.4283 35.8898 42.358 35.8504C42.2483 35.7885 42.1372 35.7253 42.0331 35.655C42.0106 35.6409 42.0008 35.5832 42.0106 35.5551C42.0219 35.5242 42.0599 35.4946 42.0908 35.4834C42.1245 35.4736 42.1653 35.4834 42.2005 35.4904C42.275 35.5073 42.3467 35.5326 42.4212 35.5467C42.4691 35.5551 42.5351 35.5284 42.5647 35.5537C42.6097 35.5903 42.6294 35.6564 42.649 35.6901" fill="#470814"/>
<path d="M40.9253 38.3816C40.9168 38.3999 40.914 38.4154 40.9056 38.4224C40.8972 38.4294 40.8803 38.4308 40.869 38.428C40.7369 38.3859 40.6159 38.3226 40.5105 38.2312C40.4936 38.2171 40.488 38.1876 40.4795 38.1665C40.4697 38.137 40.5105 38.0821 40.5386 38.0835C40.6441 38.0863 40.7369 38.1229 40.8072 38.2016C40.855 38.2551 40.8887 38.3226 40.9267 38.3816" fill="#470814"/>
<path d="M41.0461 37.9652C41.0152 37.9427 40.9871 37.9118 40.9519 37.9005C40.8929 37.8795 40.8211 37.8837 40.8 37.8063C40.7775 37.7276 40.7972 37.6531 40.8352 37.5842C40.845 37.5673 40.876 37.5532 40.8971 37.5532C40.9196 37.5532 40.9632 37.5687 40.9632 37.5813C40.9688 37.6629 41.0124 37.722 41.0588 37.7838C41.1024 37.8429 41.0742 37.9062 41.0363 37.9624L41.0447 37.9666L41.0461 37.9652Z" fill="#470814"/>
<path d="M41.4959 37.3833C41.472 37.3833 41.4425 37.3903 41.4228 37.3805C41.3216 37.3313 41.2203 37.2793 41.1233 37.223C41.1106 37.216 41.1064 37.1794 41.1092 37.1583C41.112 37.1232 41.1613 37.1091 41.202 37.1218C41.3258 37.1611 41.4186 37.2469 41.5142 37.3299C41.5198 37.3341 41.5226 37.3496 41.5198 37.358C41.5156 37.3678 41.5044 37.3763 41.4973 37.3861" fill="#470814"/>
<path d="M39.2447 21.0771C39.2601 21.0828 39.2925 21.094 39.3248 21.1053C39.3065 21.1221 39.2897 21.139 39.27 21.1545C39.2615 21.1615 39.2489 21.1671 39.2362 21.1728C39.225 21.177 39.2137 21.1812 39.2011 21.1854C39.1645 21.1967 39.0956 21.1742 39.1054 21.1559C39.1167 21.1348 39.1336 21.1151 39.1547 21.1025C39.1758 21.0898 39.2025 21.0884 39.2447 21.0771Z" fill="#470814"/>
<path d="M41.5806 37.8176C41.5974 37.8049 41.6129 37.7895 41.6312 37.7796C41.634 37.7768 41.6551 37.7923 41.6551 37.7979C41.6551 37.826 41.6368 37.8387 41.6101 37.8331C41.5988 37.8331 41.5904 37.8232 41.5806 37.8176Z" fill="#470814"/>
<path d="M41.0376 37.9615L41.0579 37.9485C41.0579 37.9485 41.0448 37.9659 41.0448 37.9673L41.0376 37.963" fill="#470814"/>
</g>
</svg>
