<svg width="320" height="328" viewBox="0 0 320 328" fill="none" xmlns="http://www.w3.org/2000/svg">
<path d="M318.52 141.687C330.432 231.297 269.124 313.837 181.567 326.03C94.0207 338.234 13.394 275.468 1.48208 185.858C-10.4409 96.2357 50.8788 13.7075 138.425 1.51464C225.971 -10.6782 306.608 52.0764 318.52 141.698" fill="#5F6A33"/>
<path d="M156.725 286.555C156.725 286.555 163.692 318.725 168.483 302.113C169.056 300.125 168.439 297.986 168.41 295.908C168.38 293.844 168.351 291.736 168.748 289.733C169.233 287.202 169.056 284.777 168.66 282.307C168.175 279.205 168.351 276.117 168.704 273.03C168.865 271.569 169.733 270.424 170.291 269.144C171.952 265.379 174.245 262.155 177.698 259.896C179.947 258.42 182.137 256.869 184.43 255.468C186.84 254.007 189.265 252.531 191.808 251.356C193.718 250.483 195.482 249.444 197.114 248.133C200.303 245.588 203.477 243.013 206.637 240.452C207.593 239.684 208.636 239.217 209.856 239.006C211.972 238.63 214.074 238.072 216.161 237.53C216.676 237.395 217.205 237.139 217.631 236.792C218.88 235.783 220.335 235.211 221.79 234.608C222.848 234.172 223.892 233.705 224.803 233.313C224.906 232.485 224.862 231.747 225.112 231.129C225.597 230 225.67 228.87 225.509 227.68C225.391 226.822 225.538 226.084 226.038 225.301C226.537 224.517 227.155 223.945 227.846 223.418C231.461 220.601 235.106 217.815 238.692 214.938C241 213.071 243.131 210.977 245.482 209.17C246.981 208.01 247.893 206.564 248.642 204.847C249.421 203.1 250.332 201.398 251.361 199.787C252.434 198.1 253.713 196.534 254.888 194.907C255.711 193.747 256.417 192.572 255.858 191.006C255.697 190.554 255.917 189.892 256.123 189.41C257.255 186.684 258.475 183.988 259.606 181.261C260.033 180.237 260.385 179.153 260.62 178.053C260.87 176.924 260.885 175.734 261.091 174.589C261.311 173.415 261.341 172.255 261.061 171.095C260.738 169.725 260.415 168.354 260.077 166.983C259.812 165.944 259.533 164.92 259.254 163.821C258.269 163.821 257.402 163.805 256.535 163.851C254.697 163.941 252.875 164.062 251.052 163.534C250.612 163.399 250.053 163.489 249.597 163.67C247.452 164.498 245.321 165.402 243.175 166.23C242.675 166.426 242.058 166.712 241.617 166.577C240.323 166.14 239.412 166.622 238.589 167.556C238.339 167.827 238.031 168.053 237.781 168.324C235.709 170.613 233.122 172.104 230.329 173.294C228.389 174.122 226.655 175.297 225.244 176.864C223.025 179.303 220.908 181.864 218.821 184.424C216.896 186.774 215.118 189.229 213.192 191.563C208.989 196.624 204.594 201.504 200.847 206.926C199.627 208.688 198.436 210.48 197.393 212.363C196.79 213.447 196.158 214.456 195.306 215.315C194.321 216.294 193.307 217.273 192.249 218.161C191.734 218.598 191.088 218.945 190.456 219.125C187.222 219.999 184.415 221.611 182.152 224.141C180.226 226.295 178.492 228.629 176.508 230.708C173.451 233.885 170.247 236.913 167.072 240.045C165.544 239.82 165.485 240.045 165.412 238.208C165.279 235.015 165.147 231.807 165.103 228.614C165.029 222.74 164.824 216.851 165.823 211.022C165.999 209.983 166.308 209.034 166.852 208.131C167.866 206.444 168.807 204.727 169.777 203.01C170.585 201.579 171.54 200.269 172.804 199.199C174.568 197.693 176.39 196.232 177.963 194.53C179.727 192.618 181.255 190.494 182.813 188.4C184.885 185.629 187.178 183.099 189.721 180.764C191.146 179.454 192.851 178.445 194.012 176.833C194.424 176.261 194.894 175.749 195.394 175.267C196.967 173.686 198.583 172.149 200.156 170.568C201.523 169.167 202.772 167.661 204.198 166.321C205.462 165.131 206.564 163.836 207.46 162.329C208.151 161.155 208.71 159.859 209.606 158.88C211.723 156.531 213.971 154.302 216.22 152.088C217.072 151.244 218.087 150.552 219.042 149.844C219.6 149.422 219.85 148.895 219.968 148.202C220.218 146.726 220.556 145.265 220.85 143.789C221.041 142.825 221.423 141.831 221.32 140.882C220.952 137.177 220.409 133.502 219.953 129.812C219.615 127.071 219.057 124.33 219.527 121.529C219.556 121.378 219.468 121.197 219.424 120.986C218.63 121.197 218.542 121.815 218.38 122.387C217.734 124.691 217.116 127.011 216.44 129.315C216.264 129.888 216 130.46 215.676 130.957C215.162 131.725 214.574 132.433 214.001 133.156C213.648 133.593 213.325 134.044 212.928 134.436C210.165 137.132 207.387 139.798 204.624 142.494C203.698 143.413 202.787 144.346 201.949 145.355C200.009 147.675 198.157 150.085 196.188 152.374C192.866 156.215 189.706 160.161 186.855 164.363C186.355 165.101 185.797 165.779 185.326 166.532C183.43 169.589 181.549 172.662 179.668 175.734C178.83 177.09 177.963 178.43 177.213 179.816C175.744 182.527 174.406 185.313 172.907 188.024C171.07 191.353 169.497 194.786 167.91 198.235C166.94 200.374 166.264 202.724 164.559 204.471C163.677 203.838 163.663 203.838 163.868 202.935C164.206 201.428 164.618 199.922 164.897 198.401C165.559 194.847 166.308 191.292 166.72 187.693C167.175 183.822 167.146 179.876 167.616 176.005C168.131 171.743 168.366 167.48 168.601 163.203C168.63 162.57 168.865 161.908 169.203 161.381C170.1 159.965 171.143 158.639 172.055 157.239C175.347 152.088 178.58 146.877 181.902 141.741C183.313 139.557 184.694 137.328 186.62 135.52C189.324 132.975 191.925 130.324 194.571 127.704C195.82 126.454 196.981 125.083 198.319 123.968C201.846 121.032 205.462 118.2 209.033 115.308C209.577 114.871 210.121 114.42 210.532 113.862C211.855 112.07 213.457 110.594 215.235 109.344C216.529 108.44 217.043 107.16 217.484 105.775C217.616 105.353 217.748 104.826 218.057 104.555C220.056 102.853 220.232 100.277 221.114 98.0481C221.188 97.8824 221.144 97.6716 221.144 97.4908C221.202 96.557 221.232 95.6232 221.32 94.7045C221.452 93.4845 221.658 92.2796 221.776 91.0597C221.878 90.1108 221.776 89.1921 221.055 88.3938C220.835 88.3938 220.614 88.3637 220.394 88.3938C217.587 88.8607 214.78 89.3276 211.987 89.8247C211.032 89.9903 210.106 90.4422 209.165 90.4422C208.151 90.4422 207.284 90.7283 206.402 91.135C205.902 91.376 205.388 91.5868 204.874 91.7525C204.227 91.9483 203.551 92.2495 203.095 91.391C202.287 91.9483 201.567 92.4303 200.847 92.9423C198.995 94.2527 197.187 95.6383 195.291 96.8583C192.866 98.4096 190.456 99.9609 188.413 102.024C187.634 102.823 186.825 103.591 186.017 104.359C183.724 106.543 181.358 108.636 179.139 110.895C175.847 114.254 172.922 117.959 170.423 121.98C169.218 123.923 168.322 126.047 167.278 128.08C167.028 128.562 166.778 129.044 166.558 129.481C165.926 129.406 165.559 129.345 165.353 128.743C164.78 127.056 164.133 125.399 163.442 123.758C163.207 123.215 162.869 122.432 162.428 122.312C161.517 122.056 161.238 121.378 160.841 120.7C160.37 119.887 160.547 119.059 160.753 118.23C160.899 117.688 161.046 117.146 161.164 116.588C161.605 114.465 161.914 112.326 162.472 110.233C164.089 104.193 164.971 98.0782 164.971 91.8127C164.971 90.3066 164.927 88.8005 165.074 87.3094C165.279 85.1557 165.661 83.017 165.882 80.8632C165.941 80.2307 165.926 79.4776 165.632 78.9655C164.824 77.5498 164.486 75.9984 164.074 74.4622C163.251 71.4198 162.516 68.3624 161.693 65.32C161.34 64.0097 160.914 62.6994 159.753 61.8258C159.577 61.7053 159.503 61.4493 159.371 61.2535C158.342 59.6419 157.328 58.0153 156.24 56.449C155.858 55.8917 155.608 55.3495 155.52 54.6717C154.8 49.4756 153.463 44.4451 151.67 39.5352C149.994 34.9415 147.804 30.5888 145.879 26.1006C145.703 25.6939 145.438 25.3174 145.217 24.9258C145.188 26.7181 145.364 28.42 145.629 30.1068C146.232 33.9625 146.937 37.8031 147.496 41.6588C147.745 43.3306 147.79 45.0325 147.834 46.7344C147.834 47.126 147.613 47.7134 147.305 47.9092C146.805 48.2105 146.232 48.0147 145.894 47.4423C145.82 47.3218 145.747 47.2013 145.658 47.0959C144.35 45.5145 143.028 43.9481 141.72 42.3667C139.956 40.2581 138.163 38.1797 136.458 36.041C135.12 34.3692 133.592 33.0137 131.637 32.1702C130.638 31.7335 129.609 31.5075 128.257 31.5377C129.065 33.0438 129.727 34.3692 130.491 35.6343C131.108 36.6585 131.99 37.532 132.225 38.7972C132.284 39.1436 132.578 39.4599 132.828 39.731C133.886 40.8907 134.974 42.0504 136.076 43.18C136.737 43.8728 137.178 44.6259 137.354 45.6049C137.516 46.4784 137.781 47.3369 138.119 48.1653C138.898 50.0178 139.809 51.8251 140.588 53.6777C141.029 54.747 141.323 55.8917 141.602 57.0213C141.822 57.8798 141.837 58.7985 142.087 59.657C143.145 63.1663 144.027 66.6906 144.512 70.3505C145.129 74.8839 145.644 79.4023 145.497 83.9809C145.379 87.3697 145.085 90.7434 144.879 94.1322C144.762 95.9847 144.924 97.8674 144.13 99.6597C143.704 100.609 143.469 100.849 142.484 100.473C141.837 100.217 141.235 99.8555 140.588 99.6295C139.941 99.4036 139.677 98.9819 139.471 98.3343C138.854 96.3612 138.075 94.4485 137.546 92.4604C136.972 90.2916 136.326 88.1227 136.429 85.8184C136.546 83.3634 136.414 80.9235 135.87 78.5137C135.591 77.2786 135.267 76.0587 135.15 74.8086C134.606 69.4769 134.165 64.1302 133.621 58.7834C133.518 57.7593 133.327 56.72 132.96 55.7712C131.799 52.8644 130.109 50.304 127.904 48.1201C126.155 46.388 124.186 45.0325 121.761 44.5355C119.468 44.0535 117.16 43.6318 114.853 43.2704C113.648 43.0746 112.413 43.0444 111.105 42.924C111.149 43.3306 111.135 43.662 111.237 43.9632C111.781 45.6049 112.31 47.2465 112.928 48.8731C113.324 49.9274 113.369 50.9365 113.045 52.036C112.678 53.2861 112.266 54.6115 112.325 55.8917C112.428 58.0454 111.811 60.0034 111.164 61.9463C110.429 64.1904 109.753 66.4195 109.341 68.7389C109.048 70.4408 108.901 72.0825 109.812 73.664C109.988 73.9802 110.047 74.3718 110.165 74.7333C110.958 77.2033 112.046 79.5378 113.413 81.7217C115.852 85.6376 118.968 88.9662 122.29 92.0989C123.304 93.0478 124.421 93.9665 125.156 95.1262C126.126 96.6323 126.567 98.4698 127.934 99.7048C126.714 100.834 125.7 101.889 125.45 103.515C125.714 103.786 125.964 104.058 126.243 104.314C129.168 106.889 132.166 109.374 135.4 111.558C136.517 112.311 136.737 113.155 136.502 114.42C136.017 117.116 135.752 119.827 135.929 122.568C135.958 123.05 135.855 123.547 135.811 124.044C135.664 124.104 135.517 124.149 135.37 124.209C135.091 123.938 134.753 123.697 134.518 123.396C132.71 121.152 130.976 118.848 129.124 116.634C125.876 112.718 122.951 108.561 120.409 104.133C118.895 101.497 117.616 98.7259 116.234 96.0148C114.632 92.8821 113.016 89.7644 110.297 87.445C109.768 86.9931 109.356 86.3756 108.783 86.0142C107.328 85.1105 107.049 83.5441 106.593 82.0983C106.299 81.1645 106.137 80.1704 105.873 79.2366C105.212 76.9322 104.565 74.6279 103.786 72.3687C103.521 71.6006 103.33 70.8776 103.374 70.0493C103.463 68.4979 103.477 66.9316 102.757 65.4857C102.11 64.1904 101.905 62.8199 101.919 61.389C101.934 59.0094 101.376 56.7201 100.846 54.4307C100.699 53.7831 100.508 53.0903 99.6119 52.7138C99.4502 53.9789 99.2445 55.0784 99.171 56.1929C99.0534 57.6689 98.686 59.0395 97.9952 60.3498C97.422 61.4643 96.8635 62.6542 96.6724 63.8741C96.2462 66.6605 96.0845 69.492 95.7318 72.2783C95.526 73.8146 95.7024 75.2604 96.1286 76.7214C96.3491 77.4744 96.5255 78.2727 96.6137 79.0559C96.6577 79.4926 96.5696 80.0349 96.3344 80.3361C96.2021 80.5018 95.5701 80.3662 95.2174 80.2156C93.6889 79.5529 92.2045 78.8601 90.529 78.6342C89.074 78.4384 87.6483 78.0468 86.208 77.8058C85.2674 77.6401 84.2973 77.5648 83.3861 78.3179C83.6066 80.5018 83.827 82.7007 84.0328 84.8996C84.0916 85.4569 84.1798 86.0443 84.121 86.5865C84.0181 87.5805 84.2973 88.439 84.7236 89.2825C85.2821 90.3669 85.8259 91.4663 86.3403 92.5658C86.5019 92.8972 86.7665 93.3791 86.6489 93.605C86.2521 94.3581 86.7224 94.9756 86.7812 95.6383C86.8694 96.5721 87.1339 97.521 87.0163 98.4246C86.6489 101.166 87.2956 103.651 88.5008 106.061C89.5149 108.064 90.4702 110.112 91.4549 112.13C91.793 112.808 92.0281 113.471 91.8664 114.269C91.7195 114.962 91.8958 115.67 92.3514 116.257C93.2921 117.477 94.1886 118.712 95.1145 119.947C95.4526 120.399 95.7465 120.881 96.1433 121.257C97.1281 122.161 98.1716 122.974 99.171 123.848C101.772 126.152 104.344 128.517 106.975 130.806C108.812 132.403 110.429 134.165 111.869 136.138C115.617 141.259 119.365 146.38 123.495 151.199C126.434 154.633 129.491 157.947 132.651 161.155C133.695 162.209 134.856 163.158 135.826 164.272C137.972 166.727 140.029 169.258 142.102 171.773C144.468 174.65 146.82 177.556 149.186 180.433C149.877 181.277 150.347 182.195 150.641 183.28C151.052 184.771 151.596 186.232 152.125 187.678C152.625 189.048 153.169 190.404 153.698 191.744C154.153 192.904 154.021 194.064 153.948 195.54C153.286 194.636 152.831 193.988 152.36 193.356C150.215 190.479 148.128 187.527 145.879 184.741C142.998 181.186 139.162 178.776 135.503 176.186C133.533 174.8 131.461 173.595 129.932 171.622C127.507 168.49 124.95 165.462 122.554 162.299C120.791 159.95 118.983 157.585 117.616 154.995C116.161 152.238 115.206 149.211 114.03 146.304C113.765 145.657 113.53 144.979 113.192 144.376C112.619 143.367 112.016 143.141 110.899 143.322C109.371 143.563 108.239 144.512 107.063 145.431C106.52 145.868 106.431 146.334 106.505 147.012C106.887 150.627 108.445 153.835 109.709 157.148C109.826 157.45 110.018 157.721 110.209 157.977C110.973 159.031 111.84 159.965 112.825 160.823C114.456 162.254 115.867 163.941 117.351 165.538C119.247 167.586 121.305 169.438 123.598 171.05C125.597 172.451 127.757 173.625 129.462 175.448C130.799 176.864 132.225 178.204 133.621 179.575C134.474 180.418 135.37 181.216 136.164 182.135C138.898 185.313 141.558 188.566 144.306 191.729C145.894 193.551 147.701 195.163 149.23 197.016C151.258 199.501 153.242 202.046 154.359 205.149C154.653 205.977 155.021 206.835 155.579 207.498C157.108 209.305 157.901 211.309 158.078 213.718C158.342 217.604 159.136 221.46 159.004 225.391C158.93 227.936 158.71 230.451 158.063 233.072C157.651 232.906 157.284 232.831 157.019 232.62C155.902 231.792 154.815 230.933 153.713 230.075C153.463 229.879 153.198 229.653 153.036 229.382C152.199 227.981 151.376 226.566 150.553 225.15C149.994 224.186 149.377 223.237 148.862 222.243C147.745 220.029 146.481 217.86 145.644 215.541C144.674 212.86 144.012 210.043 143.336 207.257C142.293 202.904 141.073 198.627 139.059 194.621C138.383 193.265 137.722 191.925 136.267 191.277C136.105 191.202 135.973 191.051 135.87 190.901C134.988 189.696 134.048 188.536 133.269 187.256C132.255 185.584 131.358 183.822 130.417 182.105C130.006 181.337 129.389 180.825 128.595 180.463C127.948 180.162 127.331 179.725 126.787 179.243C125.626 178.189 124.568 176.984 123.363 175.975C121.334 174.288 119.277 172.616 116.72 171.803C115.5 171.411 114.236 171.11 113.03 170.673C112.149 170.357 111.355 170.478 110.473 170.673C108.298 171.201 106.872 172.646 105.652 174.424C105.05 175.297 104.389 176.126 103.742 176.984C102.537 176.562 101.523 176.126 100.464 175.854C99.6854 175.659 98.7888 175.493 98.054 175.689C97.2897 175.885 96.6136 175.885 95.8935 175.749C94.9088 175.568 93.924 175.312 92.9393 175.086C90.7494 174.574 88.5595 173.987 86.355 173.595C85.0028 173.354 83.5772 173.219 82.2544 173.43C80.917 173.656 79.6236 173.61 78.3009 173.61C76.8458 173.61 75.3026 173.49 73.9358 173.866C72.2603 174.333 70.6289 174.725 68.924 174.439C67.1015 174.122 66.0286 175.644 64.5736 176.171C64.1033 176.336 63.7506 176.879 63.3537 177.27C63.2215 177.406 63.0451 177.587 63.0598 177.737C63.1186 178.55 62.4719 178.822 62.031 179.258C61.6342 179.65 61.252 180.072 60.7964 180.388C59.7382 181.126 59.5765 182.165 59.9881 183.25C60.282 184.003 60.7964 184.71 61.3255 185.328C61.7958 185.885 62.4866 186.262 62.9716 186.819C63.3244 187.211 63.7947 187.903 63.6771 188.22C63.2362 189.334 63.9563 189.771 64.5442 190.343C65.3232 191.127 66.2197 191.834 66.8664 192.738C67.7482 193.958 68.8652 194.756 70.1733 195.389C75.4055 197.949 80.8435 199.952 86.4137 201.654C93.2333 203.733 100.038 205.902 106.858 207.98C107.945 208.311 108.504 208.974 108.93 209.998C109.591 211.655 110.326 213.282 111.149 214.848C112.884 218.177 114.691 221.46 116.455 224.758C117.249 226.249 117.983 227.771 118.836 229.216C119.85 230.948 120.938 232.65 122.025 234.337C122.863 235.633 123.73 236.913 124.597 238.178C126.376 240.753 128.213 243.284 129.947 245.874C131.74 248.555 133.46 251.281 135.209 253.992C137.487 257.532 139.956 260.95 142.013 264.61C144.541 269.084 147.496 273.18 150.891 276.991C152.346 278.647 153.683 280.395 154.859 282.262M167.293 251.01C167.557 250.212 167.939 249.444 168.175 248.645C169.218 245.091 171.79 242.741 174.289 240.317C174.7 239.925 175.303 239.654 175.861 239.548C177.243 239.277 178.654 239.127 180.344 238.901C179.844 241.009 179.389 242.817 178.977 244.639C178.301 247.606 177.022 250.287 175.597 252.938C175.053 253.962 174.641 255.062 174.171 256.131C173.025 258.721 171.29 260.89 169.336 262.908C168.513 262.442 168.351 261.658 168.219 260.966C167.763 258.706 167.396 256.432 166.969 254.188C166.764 253.089 166.969 252.049 167.307 251.01M158.048 272.683C158.092 270.936 157.343 269.4 156.931 267.758C156.578 266.418 156.108 265.047 156.049 263.677C155.8 257.833 155.153 252.034 154.3 246.266C153.83 243.103 153.11 239.985 152.522 236.837C152.449 236.476 152.419 236.115 152.493 235.708C154.447 237.5 156.755 238.856 157.46 241.808C158.078 244.428 158.533 247.034 158.768 249.715C159.18 254.444 159.768 259.173 160.297 263.887C160.782 268.285 161.017 272.698 160.973 277.141C160.958 279.22 161.061 281.283 161.076 283.347C161.076 283.874 161.223 284.536 160.312 284.702C160.209 284.536 160.091 284.431 160.062 284.295C159.18 280.455 157.96 276.674 158.063 272.653" fill="#DCFF90"/>
</svg>
