<svg width="56" height="39" viewBox="0 0 56 39" fill="none" xmlns="http://www.w3.org/2000/svg">
<path d="M48.3338 11.2002C50.0123 11.2002 51.6149 11.0972 53.193 11.2463C53.9333 11.3168 54.9285 11.6965 55.2701 12.2605C55.7935 13.1228 55.1481 14.0393 54.2994 14.446C52.1707 15.4656 49.9879 16.3659 47.4796 17.4668C47.3793 20.2354 47.2898 23.4947 47.1271 26.7541C47.0458 28.3757 47.1678 30.1165 46.6119 31.5781C45.6168 34.1867 43.5586 35.8598 40.7873 36.6326C32.6579 38.9022 24.5095 38.8995 16.3204 37.0122C13.3809 36.3343 10.6232 35.2388 8.75492 32.7793C7.9821 31.7625 7.35572 30.3687 7.30691 29.1214C7.15506 25.1461 7.33674 21.1573 7.32047 17.1739C7.31776 16.2655 7.03846 15.3572 6.87847 14.4488C6.85407 14.3159 6.69137 14.1586 6.72933 14.0691C7.46418 12.3011 5.91585 12.2659 4.99118 11.8185C3.93907 11.3087 2.82459 10.9264 1.76706 10.4247C0.178046 9.67087 -0.0470184 8.20659 1.27897 7.05144C2.85171 5.67936 4.69019 4.86316 6.81068 5.01772C11.1005 5.32685 15.1625 4.03069 19.2869 3.24161C20.1709 3.07077 20.9518 2.09459 21.6704 1.37872C22.5327 0.516421 23.5116 0.0581566 24.6993 0.207296C27.156 0.516421 29.6155 0.839105 32.0532 1.27568C32.6986 1.38956 33.4443 1.80444 33.8293 2.31694C34.6862 3.45582 35.8549 3.69716 37.1104 3.95205C40.5948 4.6625 44.1281 5.23465 47.2708 7.05686C49.291 8.22829 49.5323 9.18549 48.3392 11.2057L48.3338 11.2002ZM23.0452 2.73724C23.0343 2.88367 23.0262 3.0301 23.0154 3.17382H30.1876C27.8122 2.34677 25.4368 1.87495 23.0452 2.73724ZM6.08125 9.6302C6.17887 8.67299 6.25751 7.91374 6.36598 6.87518C5.23794 7.31989 4.25362 7.70765 2.9656 8.21744C4.22379 8.78688 5.10778 9.1882 6.08397 9.6302H6.08125Z" fill="#470814"/>
</svg>
