<?xml version="1.0" encoding="UTF-8"?>
<svg id="Layer_1" data-name="Layer 1" xmlns="http://www.w3.org/2000/svg" viewBox="0 0 100 100">
  <path d="m24.62,36.14c-.11-.98-.16-1.88-.31-2.76-.13-.74.26-.96.84-.96.51,0,1.01.13,1.61.21.06,1.09.16,2.14.18,3.19.02.72.25,1.04,1.04,1.07,4.38.19,8.75.47,13.12.63,2.94.11,5.88.07,8.82.14.39.01.85.2,1.15.46,1.71,1.43,3.4,2.89,5.07,4.37,1.09.97,2.26,1.7,3.78,1.68.52,0,.79.27.49.7-.48.71.03,1.01.47,1.28,1.08.67,2.19,1.32,3.32,1.92.47.25.87.49.75,1.09-.12.6-.62.58-1.09.61-1.11.08-1.16.11-1.18,1.26-.03,1.52,0,3.04,0,4.56,0,.26.06.52.11.93.67-.57,1.28-.99,1.77-1.52,1.31-1.41,2.58-2.87,3.87-4.3.17-.19.39-.43.62-.47,4.59-.89,9.19-1.76,13.78-2.63,1.03-.19,1.79.08,2.57.9,2.09,2.22,4.38,4.24,6.48,6.44,2.06,2.16,3.99,4.44,5.96,6.69.16.19.27.49.27.74.02,1.6.01,3.2.01,4.86-1.63.11-3.03.27-4.43.28-4.24.04-8.49.09-12.73,0-3.62-.08-7.23-.45-10.84-.55-3.34-.09-6.69.01-10.04.04-3.62.03-7.24.08-10.86.1-6.78.04-13.55.1-20.33.09-3.37,0-6.74-.21-10.12-.26-2.09-.03-4.19.05-6.28.05-1.03,0-2.07-.07-3.1-.08-1.88,0-3.75,0-5.63.03-.52.01-.74-.12-.71-.69.28-5.02.53-10.04.79-15.06.02-.36,0-.73,0-1.19-.5.17-.88.29-1.3.43-.22-.56-.53-1.07-.62-1.61-.25-1.55,0-2.8,1.7-3.55,2.81-1.25,4.68-3.65,6.68-5.88,1.11-1.24,2.28-2.41,3.47-3.57.23-.23.67-.39.99-.36,2.99.2,5.97.44,8.95.66.26.02.53,0,.87,0h0Z" style="stroke-width: 0px;"/>
</svg>