<svg width="247" height="384" viewBox="0 0 247 384" fill="none" xmlns="http://www.w3.org/2000/svg">
<path d="M148.198 9.33462C148.198 9.33462 183.3 23.6483 175.499 56.1669C165.1 86.0859 161.195 92.5928 161.195 92.5928C161.195 92.5928 178.096 83.4864 181.993 121.212C176.789 158.938 152.095 196.664 149.489 229.19C154.693 246.103 163.793 264.316 192.392 281.23C218.393 303.342 246.992 348.874 246.992 348.874C246.992 348.874 205.388 294.235 175.49 279.922C153.394 256.502 144.294 248.703 144.294 248.703L141.696 269.516C141.696 269.516 167.015 293.228 194.997 309.841C154.701 296.835 140.397 287.729 137.799 282.521C141.696 303.334 140.397 316.348 144.302 321.547C169.004 338.46 197.603 359.273 196.304 383.993C181.806 354.431 167.535 344.228 144.302 333.253C151.73 343.204 159.88 357.485 159.88 357.485L135.202 330.645C135.202 330.645 118.301 348.858 126.102 364.472L133.903 380.085C133.903 380.085 118.301 374.878 117.002 359.273C124.803 326.746 129.998 318.947 129.998 318.947L127.401 305.941C127.401 305.941 114.404 318.947 110.499 339.768C105.296 360.58 96.1958 369.687 91.0004 372.295C100.1 354.082 103.997 339.768 107.902 321.555C115.703 303.342 124.803 290.336 124.803 290.336L131.305 261.717C131.305 261.717 97.5028 278.63 96.2039 317.656C91.0004 296.843 96.2039 282.529 126.102 251.311C132.604 234.397 133.903 186.265 156 151.139C166.398 119.92 161.203 108.206 149.497 116.013C141.696 131.626 142.995 149.839 129.998 157.646C117.002 165.453 114.396 195.372 114.396 195.372C114.396 195.372 103.997 221.392 71.4934 220.092C38.9897 218.792 3.89654 221.384 0 148.532C6.50235 104.299 6.50235 93.8926 18.2001 76.9794C14.3035 69.1727 37.699 15.8335 88.4027 4.12743C139.106 -7.5786 148.206 9.33462 148.206 9.33462H148.198Z" fill="#421119"/>
</svg>
