<svg width="139" height="181" viewBox="0 0 139 181" fill="none" xmlns="http://www.w3.org/2000/svg">
<path d="M95.1783 174.976C95.4188 174.182 95.639 173.381 95.8769 172.581C96.2706 171.253 96.6684 169.925 97.0621 168.597C97.0823 168.53 97.0984 168.462 97.1185 168.396C97.5389 166.934 97.0233 168.49 97.4518 167.031C97.8293 165.733 98.2231 164.441 98.6047 163.145C99.0387 161.684 99.455 160.22 99.9053 158.764C100.456 156.976 101.028 155.196 101.595 153.414C101.981 152.193 102.372 150.97 102.762 149.751C102.879 149.388 102.988 149.021 103.104 148.662C103.354 147.867 103.606 147.078 103.86 146.285C104.042 145.723 104.236 145.167 104.416 144.609C105.1 142.464 105.781 140.317 106.469 138.173C106.743 137.313 107.04 136.467 107.315 135.607C108.04 133.366 108.752 131.12 109.477 128.879C110.182 126.704 110.902 124.535 111.619 122.365C111.664 122.233 111.704 122.1 111.748 121.969C112.542 119.531 113.339 117.095 114.137 114.659C114.631 113.146 115.128 111.629 115.631 110.119C115.945 109.163 116.267 108.215 116.594 107.264C116.8 106.674 117.042 106.099 117.23 105.507C117.874 103.495 118.494 101.473 119.134 99.4596C119.951 96.8829 120.785 94.3122 121.601 91.7395C122.406 89.1953 123.206 86.6536 123.999 84.1048C124.708 81.8204 125.398 79.534 126.099 77.2466C126.171 77.0147 126.248 76.7843 126.321 76.5523C126.783 75.0643 127.249 73.5777 127.7 72.0851C128.142 70.6265 128.576 69.1649 128.996 67.7028C129.178 67.0674 129.475 66.48 129.688 65.8607C130.095 64.6807 130.461 63.4895 130.835 62.3014C131.353 60.6494 131.868 58.9959 132.383 57.3424C132.894 55.6873 133.401 54.0308 133.911 52.3758C134.105 51.7449 134.293 51.1166 134.487 50.4858C134.941 48.9947 135.399 47.5051 135.849 46.0125C136.32 44.4534 136.782 42.8913 137.243 41.3332C137.56 40.272 137.873 39.2093 138.196 38.1455C138.278 37.8755 138.323 37.6056 138.239 37.2968C137.463 36.7621 136.457 36.6691 136.408 36.304C136.454 36.0437 136.487 35.8063 136.542 35.5723C136.605 35.3044 136.694 35.0415 136.766 34.7725C136.847 34.4695 136.778 34.3053 136.51 34.1821C136.256 34.0689 135.275 33.6477 135.018 33.5427C134.121 33.171 133.558 33.0072 132.62 32.7548C131.889 32.5563 131.288 32.3596 130.484 32.1571C130.188 32.0836 129.614 31.8975 129.329 31.7449C129.17 31.6625 129.161 31.7376 128.876 31.6823C128.838 31.6727 128.696 31.569 128.649 31.5468C128.528 31.4876 128.383 31.4661 128.262 31.407C127.896 31.2337 128.14 30.5799 128.204 30.2105C128.246 29.972 128.293 29.7351 128.349 29.4971C128.532 28.7232 129.075 27.3765 129.263 26.6001C129.352 26.2261 129.759 25.4204 129.404 25.2186C129.223 25.1191 128.608 24.7971 128.2 24.8623C128.118 24.9334 128.012 24.9818 127.968 25.0625C127.751 25.4581 127.302 26.9233 127.174 27.3521C126.969 28.0525 126.825 28.3875 126.669 28.9169C126.575 29.233 126.171 30.6368 125.804 30.8282C125.523 30.9733 125.385 30.7737 125.272 30.7039C125.182 30.6472 125.07 30.4019 125.099 30.2878C125.154 30.0909 125.509 29.127 125.58 28.9361C125.879 28.1225 126.006 27.5085 126.293 26.6903C126.556 25.933 126.951 24.7251 126.814 24.35C126.628 24.1048 126.204 23.9144 125.713 23.8656C125.323 24.0808 125.232 24.2134 125.009 24.8103C124.962 24.9362 124.631 25.5759 124.575 25.7028C124.215 26.5308 124.154 26.7439 123.803 27.5749C123.669 27.8952 123.4 28.4562 123.151 28.9878C122.988 29.3386 122.859 29.8318 122.582 29.9044C122.357 29.9636 122.151 29.8453 121.846 29.7084C121.713 29.6681 121.576 29.6399 121.453 29.5849C119.889 28.9278 118.55 28.4748 116.987 27.8178C116.558 27.6395 115.854 27.5064 115.583 27.1417C115.449 26.9669 115.414 26.7641 115.483 26.554C115.604 26.1921 115.888 25.4424 116.009 25.0805C116.207 24.4882 116.944 22.2144 117.1 21.6111C117.178 21.3025 117.089 20.8715 116.825 20.7731C116.561 20.6747 116.39 20.5741 116.122 20.5112C115.94 20.4663 115.758 20.5326 115.68 20.6931C115.346 21.3779 114.24 24.0323 113.931 24.7262C113.72 25.2029 113.414 26.0369 113.102 26.4524C113.075 26.4884 112.97 26.4957 112.916 26.4801C112.859 26.4589 112.791 26.4058 112.779 26.3505C112.755 26.2537 112.747 26.1396 112.772 26.0472C112.893 25.6113 113.078 24.7922 113.207 24.3593C113.464 23.4976 113.734 22.6363 113.961 21.768C114.12 21.1661 114.22 20.5512 114.338 19.9382C114.351 19.8783 114.321 19.7978 114.286 19.743C114.047 19.3904 113.435 19.3703 113.235 19.7074C113.111 19.9156 113.006 20.1355 112.907 20.3527C112.621 20.9817 112.33 21.6133 112.055 22.2509C111.821 22.7925 111.562 23.3251 111.382 23.8823C111.233 24.3447 111.016 24.7773 110.832 25.222C110.607 25.7763 110.472 25.777 109.97 25.6222C109.706 25.5375 109.439 25.4705 109.175 25.3858C108.546 25.1881 107.92 24.992 107.321 24.7131C105.944 24.0653 104.351 24.0586 102.968 23.4135C102.779 23.3245 102.6 23.2209 102.422 23.1172C102.315 23.0545 102.233 22.8665 102.268 22.7594C102.414 22.3696 102.755 21.3545 102.917 20.9707C103.448 19.7209 103.84 18.4333 104.101 17.1014C104.146 16.8685 104.145 16.623 104.146 16.383C104.148 16.2679 104.035 16.2118 103.938 16.1851C103.88 16.168 103.78 16.1631 103.743 16.2002C103.547 16.3907 103.331 16.5738 103.185 16.8018C102.457 17.9363 101.432 19.8296 100.947 21.1057C100.826 21.4306 100.676 21.7448 100.512 22.049C100.434 22.1957 100.462 22.2337 100.342 22.3556C100.268 22.4298 100.129 22.4057 100.033 22.379C99.7165 22.2843 99.6136 22.3245 99.538 22.0558C100.12 20.4088 100.937 17.2259 101.377 14.8923C101.238 14.6187 101.011 14.5339 100.765 14.5115C100.676 14.5015 100.562 14.5469 100.484 14.6059C100.407 14.6648 100.359 14.7674 100.311 14.8603C99.9648 15.5406 99.6348 16.227 99.2779 16.8988C98.5763 18.2097 97.8732 19.5248 97.3726 20.9292C97.1645 21.4251 97.1069 21.5424 96.8019 21.4796C96.7679 21.4715 96.6004 21.3628 96.4207 21.3236C96.3228 21.3009 96.1538 21.2332 96.0644 21.1999C95.7396 21.0788 95.4193 20.9455 95.106 20.8056C94.5674 20.5631 94.0359 20.314 93.5059 20.0608C92.2879 19.4818 90.7852 19.3192 89.5673 18.7402C89.3165 18.6189 89.202 18.405 89.2314 18.1524C89.2828 17.7044 89.6059 16.8258 89.7359 16.4025C90.1166 15.1708 90.346 14.1092 90.5318 12.8418C90.5664 12.6003 90.6297 12.2816 90.4979 12.0521C90.3984 12.0335 90.2059 11.8923 90.1024 11.8722C89.8081 11.818 89.5699 11.8864 89.3639 12.1287C89.131 12.3934 88.9388 12.6733 88.7999 12.9961C88.4807 13.7282 87.551 16.2584 87.2333 16.9864C87.1485 17.1768 87.0651 17.3631 86.9721 17.5504C86.9246 17.653 86.7259 17.6899 86.603 17.6348C86.4654 17.5696 86.3825 17.4323 86.4061 17.307C86.5334 16.73 87.2833 14.3593 87.4049 13.7849C87.5266 13.2105 87.9896 12.0187 88.0382 11.417C87.8522 11.2459 87.6735 11.1793 87.4795 11.0422C87.2814 10.9036 87.1105 10.8907 86.7848 10.871C86.7352 10.9172 86.6407 11.1086 86.5992 11.1579C86.0673 11.8153 85.771 12.5975 85.4736 13.37C85.1183 14.3106 84.7929 15.2577 84.4578 16.2058C84.4094 16.3357 84.3731 16.4702 84.3206 16.5987C84.2085 16.8992 83.9774 16.998 83.6551 16.8824C83.4602 16.8097 83.2668 16.733 83.0749 16.6522C80.9861 15.8039 78.9695 14.8114 76.9903 13.7311C76.8746 13.6694 76.819 13.5331 76.8588 13.3768C76.9379 13.0779 77.0185 12.7749 77.1113 12.4765C77.4445 11.3843 77.8077 10.2987 78.0365 9.17674C78.1822 8.4633 78.257 7.74187 78.3373 7.0179C78.3588 6.83627 78.2819 6.68272 78.1012 6.59683C77.9448 6.52001 77.8001 6.42441 77.6432 6.3613C77.5945 6.34313 77.5002 6.37272 77.4521 6.41491C77.3503 6.50184 77.248 6.60246 77.1701 6.71216C76.6031 7.55065 76.1964 8.46747 75.8492 9.41105C75.7038 9.80088 75.5585 10.1907 75.4131 10.5805C75.2556 11.0028 75.0981 11.4251 74.93 11.8388C74.8411 12.0647 74.3102 13.2405 74.196 13.4476C74.1651 13.5055 74.0348 13.5078 73.9364 13.5359C73.9387 13.4303 73.9249 13.3558 73.9436 13.2934C74.2486 12.3017 74.9973 10.3561 75.3023 9.36438C75.4153 8.99947 75.5404 8.63911 75.6153 8.26463C75.7489 7.58368 75.9788 7.05421 76.0769 6.36926C76.122 6.0623 76.0338 6.11268 76.0378 5.80427C76.0392 5.72616 75.6864 5.58072 75.6082 5.54232C75.5285 5.50797 75.0916 5.37741 75.047 5.4348C74.509 6.07136 74.5283 6.37922 74.1564 7.12858C74.0043 7.43726 73.8695 7.76163 73.7133 8.06879C73.0022 9.45485 72.256 10.8232 71.584 12.2285C71.1444 13.1469 71.1569 13.0637 70.2828 12.7285C70.2179 12.7043 70.1559 12.6719 70.0925 12.6436C68.5041 11.9542 66.9157 11.2647 65.3288 10.5712C65.1384 10.4864 64.9511 10.3934 64.7647 10.31C64.4058 10.1438 64.138 9.88206 63.9729 9.46897C63.9996 9.33552 64.018 9.16201 64.0689 9.00061C64.4022 7.90843 64.7451 6.81522 65.0865 5.72606C65.2519 5.1957 65.4295 4.66988 65.5893 4.14206C65.7506 3.61018 65.8521 3.06522 65.8881 2.50974C65.8945 2.40574 65.8953 2.30429 65.8728 2.2034C65.8585 2.14256 65.8142 2.07517 65.765 2.03367C65.5572 1.85906 65.0642 1.87874 64.9068 2.06518C64.4776 2.57118 64.1464 3.13685 63.8553 3.73135C63.4445 4.5726 63.058 5.42293 62.6553 6.2672C62.5381 6.51951 62.4183 6.76625 62.2849 7.0125C62.2379 7.10136 62.1573 7.16846 62.0809 7.23708C62.0611 7.25284 62.0119 7.24836 61.9794 7.23625C61.9591 7.22868 61.9342 7.19626 61.9337 7.17293C61.932 7.10293 61.9304 7.03294 61.949 6.97052C62.5867 5.09917 63.0478 3.18047 63.5688 1.27484C63.6317 1.04394 63.6526 0.801946 63.6775 0.561471C63.6835 0.508201 63.6276 0.422581 63.5793 0.390714C63.492 0.339645 63.3889 0.30585 63.291 0.283205C62.0884 0.04753 62.2919 -0.163348 61.7188 0.964276C61.4656 1.45727 61.2043 1.94723 60.9673 2.44628C60.6252 3.16515 60.306 3.89717 59.9614 4.61047C59.6759 5.20243 59.3741 5.78834 59.0577 6.36412C58.8893 6.66674 58.6793 6.94459 58.4749 7.21989C58.393 7.32808 58.2775 7.41452 58.1675 7.49842C58.0252 7.60723 57.8666 7.67295 57.6869 7.63372C57.4855 7.59098 57.2769 7.55484 57.0831 7.49179C55.9305 7.12212 54.7768 6.74281 53.6257 6.36907C53.3953 6.29239 53.1709 6.19947 52.9355 6.14868C52.221 5.99326 51.5398 5.74851 50.8501 5.51442C50.1278 5.26823 49.4112 5.01948 48.6889 4.77328C48.559 4.72483 48.4219 4.68298 48.2875 4.68373C48.1957 4.68188 48.0802 4.73129 48.0174 4.80039C47.9263 4.89592 47.856 5.02235 47.7994 5.14926C47.6337 5.53151 47.4818 5.91425 47.3161 6.2965C47.2681 6.41275 47.0928 6.48611 46.9649 6.45693C46.7949 6.41666 46.632 6.36979 46.465 6.3214C46.0336 6.18829 45.5917 6.12063 45.1164 6.10527C45.0208 6.25001 44.9089 6.38869 44.8499 6.54706C44.6844 7.00337 44.5406 7.46318 44.3914 7.92555C43.7715 9.83592 43.1597 11.7493 42.5318 13.6567C42.1096 14.9377 41.6655 16.2152 41.2256 17.4943C40.4401 19.7869 39.6708 22.0856 38.8594 24.3732C37.9768 26.8516 37.1064 29.3346 36.2806 31.8343C35.7939 33.3132 35.3016 34.7948 34.8067 36.2707C34.4556 37.3239 34.0938 38.3684 33.7427 39.4216C32.8807 42.0187 32.0308 44.6203 31.1565 47.2129C30.4518 49.3136 29.7212 51.4094 29.0002 53.504C28.0088 56.3859 27.0215 59.2694 26.0219 62.1482C25.7152 63.0329 25.3475 63.8949 25.0625 64.7831C24.4952 66.565 23.9644 68.3606 23.4229 70.1475C22.9122 71.8396 22.4056 73.5332 21.8923 75.2197C21.4784 76.5778 21.0563 77.9329 20.6383 79.2895C20.18 80.7791 19.7257 82.2701 19.2715 83.7612C19.1383 84.1926 19.0067 84.62 18.8696 85.0498C18.3264 86.7668 17.7793 88.4823 17.2361 90.1993C16.6123 92.1822 15.9926 94.1666 15.3607 96.1465C15.0985 96.9738 14.8037 97.7889 14.539 98.6106C13.7133 101.147 12.9079 103.692 12.0701 106.224C11.7109 107.311 11.3493 108.392 11.0322 109.491C10.9435 109.791 10.8345 110.083 10.7376 110.38C10.4229 111.336 10.1015 112.284 9.79896 113.244C9.25184 114.997 8.71285 116.752 8.17792 118.509C8.00447 119.074 7.84065 119.637 7.67127 120.203C7.33001 121.366 7.00501 122.535 6.63939 123.69C6.01959 125.637 5.37543 127.575 4.73939 129.517C4.18807 131.194 3.63118 132.873 3.0758 134.548C2.84578 135.24 2.60764 135.928 2.37913 136.615C2.13699 137.339 1.91261 138.065 1.65016 138.781C0.850662 140.925 1.49269 139.203 0.76373 141.369C0.540241 142.03 0.408092 142.707 0.246 143.378C0.163954 143.722 0.192989 144.065 0.264634 144.407C0.295325 144.548 0.36656 144.667 0.494505 144.733C0.649361 144.814 0.810274 144.878 0.964097 144.95C1.55606 145.235 2.15663 145.51 2.73847 145.81C3.12636 146.01 3.15299 146.15 3.01073 146.569C2.79681 147.192 1.48007 150.512 1.27427 151.138C1.19759 151.369 1.12092 151.599 1.07013 151.835C1.01176 152.09 1.08168 152.325 1.31678 152.463C1.55038 152.606 1.79511 152.743 2.04791 152.847C2.7535 153.138 3.46817 153.404 4.17425 153.681C4.62602 153.859 4.72697 155.238 5.12566 155.521C5.33696 155.674 5.46208 155.859 5.44989 156.127C5.44156 156.286 5.54672 156.376 5.68327 156.432C5.81321 156.48 5.94315 156.529 6.0731 156.577C7.76213 157.096 9.44558 157.617 11.1376 158.128C12.7292 158.611 14.3213 159.079 15.9159 159.554C17.3095 159.972 18.7031 160.39 20.0968 160.808C21.124 161.117 22.1512 161.426 23.1814 161.727C24.4451 162.096 25.7149 162.449 26.9756 162.827C28.5362 163.293 30.0877 163.784 31.6442 164.249C33.6662 164.855 35.7002 165.428 37.7085 166.071C38.0054 166.167 38.3089 166.234 38.6103 166.319C39.9405 166.709 41.2722 167.094 42.5968 167.486C43.8265 167.848 45.0501 168.225 46.2813 168.583C47.5126 168.94 48.7503 169.268 49.977 169.637C52.5648 170.412 55.1465 171.204 57.7298 171.992C57.8953 172.044 58.0622 172.092 58.2277 172.145C59.6244 172.555 61.0185 172.959 62.4106 173.381C64.0687 173.884 65.7222 174.398 67.3731 174.908C67.4721 174.94 67.5741 174.964 67.6746 174.992C69.4316 175.527 71.1861 176.057 72.9431 176.592C74.3678 177.026 75.7893 177.468 77.2139 177.902C78.8055 178.384 80.3991 178.849 81.9907 179.332C83.3503 179.742 84.7054 180.164 86.0635 180.578C86.1285 180.602 86.1965 180.618 86.2645 180.634C86.5756 180.718 86.7104 180.666 86.8956 180.43C87.3764 179.823 88.6071 176.101 88.8412 175.374C88.9501 175.044 89.0591 174.715 89.1761 174.389C89.2246 174.259 89.2918 174.14 89.4738 174.074C89.6707 174.129 89.9062 174.18 90.1325 174.255C91.4106 174.685 92.6941 175.113 93.9701 175.561C94.8954 175.883 94.8919 175.905 95.1803 174.958L95.1783 174.976ZM94.8549 126.104C94.8549 126.104 94.8549 126.104 94.8533 126.108L94.8432 126.086C94.8432 126.086 94.8483 126.097 94.8493 126.107L94.902 126.089C94.902 126.089 94.8493 126.107 94.8478 126.111L94.8549 126.104ZM96.7427 125.532C96.6879 125.493 96.6163 125.461 96.5893 125.41C96.6204 125.463 96.6935 125.49 96.7427 125.532ZM120.734 75.0983C119.894 76.0752 119.069 77.0719 118.189 78.016C116.6 79.7222 114.974 81.3915 113.36 83.079C111.623 84.8966 109.883 86.7086 108.158 88.5307C106.969 89.7847 105.787 91.0459 104.617 92.3212C103.744 93.2723 102.924 94.2706 102.024 95.1933C100.515 96.7488 98.9506 98.2516 97.4384 99.8014C96.8253 100.428 96.3077 101.147 95.7119 101.789C94.4732 103.127 93.2197 104.454 91.9571 105.768C90.2332 107.563 88.4911 109.333 86.7673 111.127C85.6313 112.313 84.511 113.519 83.3922 114.721C81.467 116.783 79.5484 118.852 77.6191 120.912C76.3156 122.299 74.9855 123.658 73.6926 125.054C72.5764 126.261 71.5054 127.508 70.3933 128.717C69.0811 130.152 67.7558 131.572 66.4198 132.985C65.0641 134.412 63.7084 135.84 62.3155 137.231C61.6761 137.867 60.9558 138.421 60.2543 138.988C59.2464 139.805 58.2319 140.616 57.1976 141.405C56.7833 141.722 56.3008 141.949 55.8758 142.258C54.7781 143.056 53.7038 143.89 52.5995 144.681C51.7176 145.31 50.8515 145.995 49.8886 146.468C49.1573 146.829 48.4815 147.29 47.7222 147.589C47.412 147.714 47.0387 147.686 46.6958 147.725C46.671 147.729 46.6431 147.705 46.6238 147.707C46.2223 147.816 45.8814 147.564 45.4867 147.519C45.6954 147.356 45.6703 146.94 46.0559 147.01C46.2452 146.229 46.6081 145.504 47.0375 144.836C47.4638 144.177 47.6872 143.441 48.0161 142.745C48.821 141.033 49.5614 139.284 50.6516 137.724C51.2769 136.829 51.9397 135.957 52.5757 135.07C53.0371 134.428 53.4625 133.759 53.9467 133.13C54.3692 132.58 54.84 132.061 55.3133 131.549C56.3597 130.417 57.402 129.284 58.4748 128.181C60.1708 126.436 61.9121 124.731 63.5933 122.976C65.4837 121.007 67.3208 118.996 69.1979 117.013C70.6078 115.527 72.0401 114.068 73.4566 112.588C74.5998 111.396 75.7388 110.202 76.8728 108.996C78.9256 106.816 80.9678 104.626 83.0246 102.447C85.7295 99.5841 88.4425 96.7244 91.158 93.8702C93.0079 91.9236 94.8643 89.9841 96.7299 88.0572C98.8006 85.9154 100.891 83.7949 102.968 81.6601C104.522 80.061 106.057 78.4502 107.613 76.8567C107.996 76.4629 108.43 76.1298 108.96 75.9249C109.143 75.8546 109.284 75.6621 109.432 75.5137C110.349 74.5929 111.266 73.6721 112.179 72.7498C112.935 71.9866 113.685 71.2162 114.452 70.4615C114.546 70.3716 114.695 70.3069 114.823 70.2854C115.069 70.2474 115.318 70.2479 115.57 70.2307C116.379 70.181 117.05 70.5146 117.628 71.0258C117.98 71.3331 118.305 71.6901 118.579 72.07C118.776 72.3374 119.004 72.4689 119.306 72.5399C119.548 72.5978 119.79 72.6556 120.029 72.7353C120.098 72.7611 120.181 72.8243 120.203 72.8882C120.42 73.5335 120.628 74.1799 120.825 74.8313C120.848 74.9048 120.783 75.0287 120.725 75.0993L120.734 75.0983Z" fill="black"/>
</svg>
