<?xml version="1.0" encoding="UTF-8"?>
<svg id="Layer_1" data-name="Layer 1" xmlns="http://www.w3.org/2000/svg" viewBox="0 0 100 100">
  <path d="m24.29,36.93c0-.36,0-.71,0-1.07.04-.13.1-.26.13-.39.39-1.65.66-3.34,1.19-4.93,1.31-3.91,4.01-6.66,7.63-8.51,2.76-1.4,5.77-2.1,8.78-2.75,2.65-.58,5.34-.92,8.05-.56,3.23.43,6.4,1.15,9.5,2.14,4.92,1.57,9.21,4.13,12.54,8.15,1.34,1.62,2.29,3.4,2.46,5.53.16,1.97.3,3.94.45,5.9.16,2.13-.51,3.91-2.12,5.35-.56.5-1.02,1.1-1.5,1.68-.57.7-.58,1.12-.05,1.86.26.37.56.72.87,1.05,1.05,1.12,1.8,2.43,2.07,3.93.26,1.45.49,2.93.51,4.4.04,3.49-.01,6.99-.09,10.48-.05,2.41-.24,4.83.56,7.16.36,1.05.55,2.08.38,3.19-.13.88-.5,1.39-1.37,1.62-.3.08-.59.18-.88.27h-.12c-.06-.08-.1-.17-.17-.23-1.83-1.72-3.16-3.78-3.7-6.22-.56-2.51-.84-5.09-1.33-7.62-.5-2.57-1.06-5.13-1.68-7.67-.3-1.23-1.01-1.64-2.27-1.63-.63,0-1.27-.01-1.89-.1-2.21-.33-4.11-1.36-5.81-2.76-1.1-.9-2.33-1.5-3.73-1.66-2.96-.35-5.92-.64-8.88-.97-.84-.09-1.7-.14-2.51-.36-1.52-.41-3.01-.93-4.51-1.41-2.31-.73-4.57-1.56-6.39-3.23-2.36-2.16-3.81-4.97-5.26-7.75-.45-.87-.59-1.9-.87-2.86Z" style="stroke-width: 0px;"/>
</svg>