<?xml version="1.0" encoding="UTF-8"?>
<svg id="Layer_2" data-name="Layer 2" xmlns="http://www.w3.org/2000/svg" viewBox="0 0 447.07 107.28">
  <g id="Layer_1-2" data-name="Layer 1">
    <g>
      <path d="m89.37,21.36c-20.55-18.09-55.28-6.79-57.32,11.2,6.61-1.07,13.1-2.22,19.63-3.15,34.33-4.88,68.28-3.33,101.7,6.25,3.01.86,6.71,1.28,7.19,6.19-8.06,1.23-16.03,2.35-23.96,3.66-22.15,3.66-44.11,8.14-64.82,17.08-4.49,1.94-8.76,4.75-12.49,7.91-1.53,1.3-1.36,4.57-1.97,6.95,2.28.53,4.99,2.12,6.75,1.4,6.26-2.54,12.24-5.79,18.24-8.93,3.67-1.92,7.06-4.38,10.81-6.11,5.67-2.61,10.98-1.56,15.74,2.5,10.6,9.02,14.09,9.36,26.26,2.41,2.72-1.55,5.25-3.43,7.86-5.16.38.34.77.67,1.15,1.01-4.16,4.37-7.92,9.22-12.55,13.02-8.27,6.79-15.84,6.28-24.19-.73-5.72-4.8-10.12-5.11-16.06-.52-4.85,3.75-9.25,8.07-14.06,11.87-6.65,5.25-14.09,8.75-22.79,8.84-8.95.09-15.64-3.7-18.37-10.29-3.14-7.57-1.39-17.43,5.33-22.59,5.7-4.38,12.14-8.15,18.79-10.87,19.03-7.78,39.24-10.98,59.5-13.79,1.97-.27,3.95-.54,5.91-.86.28-.05.51-.37,2.15-1.62-15.1,0-28.87-.77-42.53.16-27.11,1.86-53.52,7.81-79.45,15.82-4.84,1.5-6.48-.41-5.62-6.4C3.46,23.87,17.03,9.84,38.3,2.67,54.55-2.81,69.51.22,82.66,11.05c3.1,2.56,5.22,6.3,7.79,9.5-.36.27-.72.54-1.08.8Z" style="stroke-width: 0px;"/>
      <path d="m430.02,102.63c-1.23.84-2.52,1.91-3.96,2.68-8.18,4.35-17.21.14-19.19-8.87-1.72-7.86,2.21-17.68,8.81-22.25,5.32-3.7,10.86-3.28,15.54-1.23,2.37-4.86,4.04-9.76,7-13.69,1.33-1.76,5.26-1.58,8.84-2.49-1.25,11.78-2.37,22.37-3.51,32.96-.42,3.93-.93,7.86-1.34,11.79-.56,5.38-1.3,6.03-6.37,4.41-1.95-.62-3.64-2.04-5.82-3.31Zm-7.69-6.33c6.04-.13,7.86-3.45,8.57-7.31.35-1.92-.33-5.75-.96-5.84-2.52-.36-6.12-.49-7.6.99-1.91,1.91-2.71,5.4-2.93,8.3-.11,1.39,2.2,2.97,2.92,3.86Z" style="stroke-width: 0px;"/>
      <path d="m350.98,74.29c4.03-1.02,7.4-1.87,11.85-2.99-1.28,11.9-2.36,22.5-3.68,33.07-.11.84-2.15,2.23-2.96,2.04-2.92-.71-5.7-1.99-9.19-3.31-1.26.68-3.41,2.24-5.81,3.06-8.72,2.96-16.86-2.55-16.95-11.66-.04-3.7.42-7.66,1.75-11.07,4.51-11.56,14.06-14.63,25-9.13Zm-10.98,22.13c5.7-.57,7.54-3.61,8.13-7.37.31-1.95-.46-4.07-.74-6.11-2.75.42-6.29-.04-8.04,1.51-1.86,1.64-2.64,5.17-2.67,7.89-.02,1.53,2.45,3.08,3.32,4.08Z" style="stroke-width: 0px;"/>
      <path d="m378.75,75.18c4.32-1.31,8.39-3.39,12.56-3.62,7.72-.43,12.88,5.11,12.5,12.77-.32,6.41-1.09,12.81-1.99,19.18-.16,1.15-1.79,2.83-2.91,2.99-3.05.42-6.2.14-9.89.14.65-5.99,1.23-11.36,1.8-16.72.31-2.95,1.08-6.41-2.67-7.57-3.98-1.23-7.06.95-8.09,4.66-1.35,4.88-2.27,9.95-2.68,15-.28,3.41-1.36,4.7-4.75,4.42-2.59-.21-5.2-.04-8.29-.04,1.2-11.17,2.35-21.6,3.41-32.04.33-3.24,2.44-3.31,4.6-2.48,2.5.96,4.79,2.47,6.42,3.33Z" style="stroke-width: 0px;"/>
      <path d="m216.39,74.89c3.77-1.09,7.88-3.13,12.08-3.32,7.41-.34,12.29,4.74,12.03,12.11-.26,7.4-1.23,14.78-1.93,22.55h-12.42c.49-5.4,1.1-10.72,1.41-16.05.17-2.95,1.47-6.6-2.81-7.96-3.41-1.09-7.06,1.31-8.35,6-1.09,3.94-1.75,8.1-1.86,12.19-.13,4.62-1.76,6.68-6.54,6.02-1.93-.26-3.92-.04-6.67-.04.91-9.15,1.77-17.77,2.64-26.39.03-.33.07-.66.17-.98.78-2.48,1.58-4.96,2.37-7.44,3.26,1.09,6.52,2.19,9.87,3.32Z" style="stroke-width: 0px;"/>
      <path d="m179.64,93.93c5.67,5.1,10.99,1.48,16.04,1.37,3.69,8,2.11,10.9-6.54,11.57-2.95.23-6.02.28-8.91-.26-7.51-1.4-12.24-6.74-12.74-13.82-.62-8.83,4-17.36,11.85-19.69,4.2-1.24,9.09-1.01,13.52-.38,4.26.6,7.01,3.75,7.09,8.34.08,4.74-2.05,8.48-6.66,9.96-4.03,1.3-8.31,1.81-13.65,2.91Zm.92-7.57c3.17-1.35,5.63-2.4,8.09-3.45-.79-.89-1.48-2.43-2.37-2.55-3.2-.42-5.33.95-5.72,6Z" style="stroke-width: 0px;"/>
      <path d="m284.42,93.9c5.73,5.2,11.12,1.41,16.2,1.41,3.21,8.47,1.71,10.95-7.01,11.63-1.16.09-2.33.09-3.49.08-8.63-.08-14.72-3.77-17.1-10.35-2.46-6.81.1-15.66,5.99-20.72,5.76-4.94,14.55-5.96,21-2.44,3.42,1.87,4.86,4.76,4.63,8.62-.27,4.47-2.58,7.63-6.71,8.92-4.02,1.26-8.27,1.78-13.52,2.84Zm.95-9.76c.25.63.51,1.25.76,1.88,2.44-1.05,4.88-2.09,7.32-3.14-.63-.85-1.12-2.26-1.91-2.46-3.26-.81-5.22.8-6.17,3.72Z" style="stroke-width: 0px;"/>
      <path d="m269.89,95.46c-.54,3.43.09,8.13-1.76,9.49-4.6,3.4-10.43,2.65-15.68.43-4.38-1.85-5.83-5.71-5.81-10.1.02-2.79.89-5.61.71-8.37-.13-1.96-1.38-3.84-2.13-5.76-.6.11-1.19.23-1.79.34.35-2.91.71-5.82,1.06-8.73l.8.55c1.66-1.69,3.67-3.17,4.92-5.12,2.77-4.33,6.59-5.64,12.04-5.04-.22,2.68-.43,5.21-.68,8.36,3.25.24,6.44.47,9.58.7.5,6.79-1.96,9.27-10.44,10.48-.23.96-.56,2.04-.73,3.14q-1.65,10.7,9.93,9.62Z" style="stroke-width: 0px;"/>
      <path d="m149.62,106.77c1.81-16.99,3.52-32.99,5.22-48.87,7.71-.85,11.77,2.17,11.29,9.11-.86,12.33-2.34,24.62-3.8,36.9-.13,1.06-1.97,2.56-3.18,2.73-2.89.4-5.88.13-9.53.13Z" style="stroke-width: 0px;"/>
      <path d="m311.32,57.93c8.04-.94,11.88,2.42,11.31,10.01-.7,9.36-1.88,18.68-2.86,28.02-.07.65-.24,1.3-.32,1.95-1.13,9.8-1.95,10.35-13.2,8.11,1.69-16.02,3.38-32.12,5.06-48.09Z" style="stroke-width: 0px;"/>
    </g>
  </g>
</svg>