<?xml version="1.0" encoding="UTF-8"?>
<svg id="Layer_1" data-name="Layer 1" xmlns="http://www.w3.org/2000/svg" viewBox="0 0 100 100">
  <path d="m60.11,82.98c.09-.31.18-.62.27-.93.15-.52.31-1.04.46-1.55,0-.03.01-.05.02-.08.16-.57-.04.04.13-.53.15-.51.3-1.01.45-1.52.17-.57.33-1.14.51-1.71.21-.7.44-1.39.66-2.09.15-.48.3-.95.46-1.43.05-.14.09-.28.13-.42.1-.31.2-.62.29-.93.07-.22.15-.44.22-.65.27-.84.53-1.67.8-2.51.11-.34.22-.67.33-1,.28-.87.56-1.75.84-2.62.27-.85.56-1.69.84-2.54.02-.05.03-.1.05-.15.31-.95.62-1.9.93-2.85.19-.59.39-1.18.58-1.77.12-.37.25-.74.38-1.11.08-.23.17-.45.25-.69.25-.78.49-1.57.74-2.36.32-1,.64-2.01.96-3.01.31-.99.63-1.98.93-2.98.28-.89.55-1.78.82-2.67.03-.09.06-.18.09-.27.18-.58.36-1.16.54-1.74.17-.57.34-1.14.51-1.71.07-.25.19-.48.27-.72.16-.46.3-.92.45-1.39.2-.64.4-1.29.6-1.93.2-.65.4-1.29.6-1.94.08-.25.15-.49.22-.74.18-.58.36-1.16.53-1.74.18-.61.36-1.22.54-1.82.12-.41.25-.83.37-1.24.03-.11.05-.21.02-.33-.3-.21-.69-.24-.71-.39.02-.1.03-.19.05-.29.02-.1.06-.21.09-.31.03-.12,0-.18-.1-.23-.1-.04-.48-.21-.58-.25-.35-.14-.57-.21-.93-.31-.29-.08-.52-.15-.83-.23-.12-.03-.34-.1-.45-.16-.06-.03-.07,0-.18-.02-.01,0-.07-.04-.09-.05-.05-.02-.1-.03-.15-.05-.14-.07-.05-.32-.02-.47.02-.09.03-.19.06-.28.07-.3.28-.83.36-1.13.03-.15.19-.46.05-.54-.07-.04-.31-.16-.47-.14-.03.03-.07.05-.09.08-.08.15-.26.73-.31.89-.08.27-.14.4-.2.61-.04.12-.19.67-.34.75-.11.06-.16-.02-.21-.05-.04-.02-.08-.12-.07-.16.02-.08.16-.45.19-.53.12-.32.17-.56.28-.88.1-.3.26-.77.2-.91-.07-.1-.24-.17-.43-.19-.15.08-.19.14-.27.37-.02.05-.15.3-.17.35-.14.32-.16.41-.3.73-.05.12-.16.34-.25.55-.06.14-.11.33-.22.36-.09.02-.17-.02-.29-.08-.05-.02-.11-.03-.15-.05-.61-.26-1.13-.43-1.74-.69-.17-.07-.44-.12-.55-.26-.05-.07-.07-.15-.04-.23.05-.14.16-.43.21-.57.08-.23.36-1.12.43-1.35.03-.12,0-.29-.11-.33s-.17-.08-.27-.1c-.07-.02-.14,0-.17.07-.13.27-.56,1.3-.68,1.57-.08.19-.2.51-.32.67-.01.01-.05.02-.07.01-.02,0-.05-.03-.05-.05,0-.04-.01-.08,0-.12.05-.17.12-.49.17-.66.1-.34.21-.67.29-1.01.06-.23.1-.47.15-.71,0-.02,0-.05-.02-.08-.09-.14-.33-.15-.41-.01-.05.08-.09.17-.13.25-.11.25-.22.49-.33.74-.09.21-.19.42-.26.64-.06.18-.14.35-.21.52-.09.22-.14.22-.34.16-.1-.03-.21-.06-.31-.09-.25-.08-.49-.15-.72-.26-.54-.25-1.16-.26-1.7-.51-.07-.03-.14-.08-.21-.12-.04-.02-.07-.1-.06-.14.06-.15.19-.55.25-.7.21-.49.36-.99.46-1.51.02-.09.02-.19.02-.28,0-.04-.04-.07-.08-.08-.02,0-.06,0-.08,0-.08.07-.16.15-.22.23-.28.44-.68,1.18-.87,1.68-.05.13-.11.25-.17.37-.03.06-.02.07-.07.12-.03.03-.08.02-.12,0-.12-.04-.16-.02-.19-.13.23-.64.55-1.88.72-2.79-.05-.11-.14-.14-.24-.15-.03,0-.08.01-.11.04-.03.02-.05.06-.07.1-.13.27-.26.53-.4.79-.27.51-.55,1.02-.74,1.57-.08.19-.1.24-.22.21-.01,0-.08-.05-.15-.06-.04,0-.1-.04-.14-.05-.13-.05-.25-.1-.37-.15-.21-.09-.42-.19-.62-.29-.47-.23-1.06-.29-1.54-.51-.1-.05-.14-.13-.13-.23.02-.17.15-.52.2-.68.15-.48.24-.89.31-1.39.01-.09.04-.22-.01-.31-.04,0-.11-.06-.15-.07-.11-.02-.21,0-.29.1-.09.1-.17.21-.22.34-.12.29-.49,1.27-.61,1.56-.03.07-.07.15-.1.22-.02.04-.1.05-.14.03-.05-.03-.09-.08-.08-.13.05-.22.34-1.15.39-1.37.05-.22.23-.69.25-.92-.07-.07-.14-.09-.22-.15-.08-.05-.14-.06-.27-.07-.02.02-.06.09-.07.11-.21.26-.32.56-.44.86-.14.37-.27.74-.4,1.11-.02.05-.03.1-.05.15-.04.12-.13.16-.26.11-.08-.03-.15-.06-.23-.09-.81-.33-1.6-.72-2.37-1.14-.05-.02-.07-.08-.05-.14.03-.12.06-.23.1-.35.13-.43.27-.85.36-1.29.06-.28.09-.56.12-.84,0-.07-.02-.13-.09-.16-.06-.03-.12-.07-.18-.09-.02,0-.06,0-.07.02-.04.03-.08.07-.11.12-.22.33-.38.68-.52,1.05-.06.15-.11.3-.17.46-.06.16-.12.33-.19.49-.03.09-.24.55-.29.63-.01.02-.06.02-.1.03,0-.04,0-.07,0-.09.12-.39.41-1.15.53-1.53.04-.14.09-.28.12-.43.05-.27.14-.47.18-.74.02-.12-.02-.1-.02-.22,0-.03-.14-.09-.17-.1-.03-.01-.2-.06-.22-.04-.21.25-.2.37-.35.66-.06.12-.11.25-.17.37-.28.54-.57,1.07-.83,1.62-.17.36-.17.33-.51.19-.03,0-.05-.02-.07-.03-.62-.27-1.24-.54-1.86-.81-.07-.03-.15-.07-.22-.1-.14-.06-.24-.17-.31-.33.01-.05.02-.12.04-.18.13-.43.26-.85.4-1.28.06-.21.13-.41.2-.62.06-.21.1-.42.12-.64,0-.04,0-.08,0-.12,0-.02-.02-.05-.04-.07-.08-.07-.27-.06-.33.01-.17.2-.3.42-.41.65-.16.33-.31.66-.47.99-.05.1-.09.19-.14.29-.02.03-.05.06-.08.09,0,0-.03,0-.04,0,0,0-.02-.02-.02-.02,0-.03,0-.05,0-.08.25-.73.43-1.48.63-2.22.02-.09.03-.18.04-.28,0-.02-.02-.05-.04-.07-.03-.02-.07-.03-.11-.04-.47-.09-.39-.17-.61.27-.1.19-.2.38-.29.58-.13.28-.26.57-.39.84-.11.23-.23.46-.35.68-.07.12-.15.23-.23.33-.03.04-.08.08-.12.11-.06.04-.12.07-.19.05-.08-.02-.16-.03-.24-.06-.45-.14-.9-.29-1.35-.44-.09-.03-.18-.07-.27-.09-.28-.06-.54-.16-.81-.25-.28-.1-.56-.19-.84-.29-.05-.02-.1-.04-.16-.03-.04,0-.08.02-.11.05-.04.04-.06.09-.08.14-.06.15-.12.3-.19.45-.02.05-.09.07-.14.06-.07-.02-.13-.03-.19-.05-.17-.05-.34-.08-.53-.08-.04.06-.08.11-.1.17-.06.18-.12.36-.18.54-.24.74-.48,1.49-.73,2.23-.16.5-.34,1-.51,1.5-.31.89-.61,1.79-.92,2.68-.34.97-.68,1.93-1.01,2.91-.19.58-.38,1.15-.57,1.73-.14.41-.28.82-.41,1.23-.34,1.01-.67,2.03-1.01,3.04-.27.82-.56,1.64-.84,2.45-.39,1.12-.77,2.25-1.16,3.37-.12.34-.26.68-.37,1.03-.22.69-.43,1.39-.64,2.09-.2.66-.4,1.32-.6,1.98-.16.53-.33,1.06-.49,1.59-.18.58-.36,1.16-.53,1.74-.05.17-.1.33-.16.5-.21.67-.43,1.34-.64,2.01-.24.77-.48,1.55-.73,2.32-.1.32-.22.64-.32.96-.32.99-.64,1.98-.96,2.97-.14.42-.28.85-.4,1.27-.03.12-.08.23-.11.35-.12.37-.25.74-.37,1.12-.21.68-.42,1.37-.63,2.05-.07.22-.13.44-.2.66-.13.45-.26.91-.4,1.36-.24.76-.49,1.51-.74,2.27-.21.65-.43,1.31-.65,1.96-.09.27-.18.54-.27.81-.09.28-.18.57-.28.84-.31.84-.06.16-.35,1.01-.09.26-.14.52-.2.78-.03.13-.02.27,0,.4.01.05.04.1.09.13.06.03.12.06.18.08.23.11.46.22.69.34.15.08.16.13.11.3-.08.24-.6,1.54-.68,1.78-.03.09-.06.18-.08.27-.02.1,0,.19.1.24.09.06.19.11.29.15.28.11.55.22.83.33.18.07.22.61.37.72.08.06.13.13.13.24,0,.06.04.1.09.12.05.02.1.04.15.06.66.2,1.31.41,1.97.6.62.19,1.24.37,1.86.56.54.16,1.09.33,1.63.49.4.12.8.24,1.2.36.49.14.99.28,1.48.43.61.18,1.21.37,1.82.55.79.24,1.58.46,2.36.71.12.04.23.06.35.1.52.15,1.04.3,1.55.46.48.14.96.29,1.44.43.48.14.96.27,1.44.41,1.01.3,2.02.61,3.02.92.06.02.13.04.19.06.54.16,1.09.32,1.63.48.65.2,1.29.4,1.93.6.04.01.08.02.12.03.69.21,1.37.42,2.05.62.56.17,1.11.34,1.67.51.62.19,1.24.37,1.86.56.53.16,1.06.32,1.59.49.03,0,.05.02.08.02.12.03.17.01.25-.08.19-.24.67-1.69.76-1.97.04-.13.08-.26.13-.38.02-.05.05-.1.12-.12.08.02.17.04.26.07.5.17,1,.33,1.5.51.36.13.36.13.47-.24h0Zm-.13-19.06h0s0,0,0,0c0,0,0,0,0,0h.02s-.02,0-.02,0h0Zm.74-.22s-.05-.03-.06-.05c.01.02.04.03.06.05Zm9.35-19.66c-.33.38-.65.77-.99,1.14-.62.67-1.25,1.32-1.88,1.97-.68.71-1.36,1.42-2.03,2.13-.46.49-.92.98-1.38,1.48-.34.37-.66.76-1.01,1.12-.59.61-1.2,1.19-1.79,1.8-.24.24-.44.52-.67.77-.48.52-.97,1.04-1.46,1.55-.67.7-1.35,1.39-2.02,2.09-.44.46-.88.93-1.32,1.4-.75.8-1.5,1.61-2.25,2.41-.51.54-1.03,1.07-1.53,1.61-.44.47-.85.96-1.29,1.43-.51.56-1.03,1.11-1.55,1.66-.53.56-1.06,1.11-1.6,1.66-.25.25-.53.46-.8.69-.39.32-.79.63-1.19.94-.16.12-.35.21-.52.33-.43.31-.85.64-1.28.94-.34.25-.68.51-1.06.7-.29.14-.55.32-.84.44-.12.05-.27.04-.4.05,0,0-.02,0-.03,0-.16.04-.29-.06-.44-.07.08-.06.07-.23.22-.2.07-.3.22-.59.38-.85.17-.26.25-.54.38-.82.31-.67.6-1.35,1.03-1.96.24-.35.5-.69.75-1.03.18-.25.35-.51.53-.76.16-.21.35-.42.53-.62.41-.44.81-.88,1.23-1.31.66-.68,1.34-1.35,2-2.03.74-.77,1.45-1.55,2.19-2.32.55-.58,1.11-1.15,1.66-1.73.45-.46.89-.93,1.33-1.4.8-.85,1.6-1.7,2.4-2.55,1.05-1.12,2.11-2.23,3.17-3.34.72-.76,1.45-1.52,2.17-2.27.81-.84,1.62-1.66,2.43-2.49.61-.62,1.2-1.25,1.81-1.87.15-.15.32-.28.53-.36.07-.03.13-.1.18-.16.36-.36.72-.72,1.07-1.08.29-.3.59-.6.89-.89.04-.04.09-.06.14-.07.1-.01.19-.01.29-.02.32-.02.58.11.8.31.14.12.26.26.37.41.08.1.17.16.28.18.09.02.19.05.28.08.03.01.06.03.07.06.08.25.17.5.24.76,0,.03-.02.08-.04.1h0Z" style="stroke-width: 0px;"/>
</svg>