<svg width="128" height="64" viewBox="0 0 128 64" fill="none" xmlns="http://www.w3.org/2000/svg">
<path d="M101.05 6.64002C101.983 8.36552 102.97 10.159 103.93 11.966C104.854 13.7051 105.751 15.4623 106.665 17.2104C107.463 18.7231 108.201 19.0356 109.804 18.3517C110.895 17.8852 111.996 17.3599 112.956 16.6715C114.962 15.2449 117.127 15.0139 119.491 15.3491C121.751 15.6661 124.043 15.7702 126.307 16.0646C126.783 16.128 127.512 16.5673 127.566 16.9206C127.63 17.3191 127.163 18.0211 126.746 18.2249C125.071 19.0446 123.812 20.1723 123.028 21.9023C122.498 23.0753 121.348 23.732 120.13 23.6641C118.232 23.5599 116.76 24.3117 115.302 25.3307C114.297 26.0372 113.246 26.6803 112.168 27.3823C113.73 30.3034 115.257 33.1158 116.733 35.9554C116.946 36.363 116.932 36.8839 117.023 37.3549C116.584 37.4228 116.14 37.5768 115.71 37.536C114.111 37.3956 112.503 37.2598 110.927 36.9699C110.447 36.8793 109.922 36.3766 109.65 35.9237C108.663 34.2843 107.775 32.586 106.765 30.7563C106.063 31.9202 105.248 32.6358 103.916 32.3731C103.735 32.3369 103.495 32.5316 103.296 32.6448C98.5587 35.267 93.8397 37.921 89.0798 40.5024C87.8434 41.1727 86.9331 41.9879 86.4938 43.3556C86.1224 44.5105 85.6062 45.6201 84.0799 45.5974C83.9939 45.5974 83.849 45.6155 83.8263 45.6699C82.9658 47.5177 81.3807 46.5847 80.0719 46.63C78.3101 46.6934 76.5393 46.7749 74.7821 46.6617C73.3872 46.5757 72.0059 46.2133 70.2804 45.9144C73.3148 51.6706 76.2993 57.3408 79.4333 63.2872C78.8264 63.4004 78.2875 63.6405 77.7938 63.5725C75.7921 63.3008 73.7903 63.0064 71.8203 62.5671C71.2451 62.4403 70.5839 61.9195 70.3031 61.3941C67.6084 56.3897 64.9364 51.3672 62.373 46.2949C61.7254 45.0087 60.9419 44.3293 59.5062 44.1572C54.8098 43.5911 50.1315 42.9208 45.4396 42.323C40.6118 41.7116 35.7704 41.1908 30.9517 40.5251C29.8693 40.3756 29.5024 40.7515 29.1537 41.6392C27.6003 45.6065 25.9926 49.5557 24.3984 53.5094C23.7644 55.0764 23.2028 55.3798 21.5316 55.0809C20.0054 54.8091 18.4792 54.5329 16.7446 54.2249C18.5969 49.3428 20.3949 44.6101 22.2789 39.6419C20.6304 39.4064 19.1087 39.18 17.587 38.9717C16.2691 38.7905 14.9512 38.5641 13.6242 38.4735C12.7275 38.4146 11.8172 38.5686 10.9114 38.6094C10.0056 38.6501 9.0908 38.7588 8.19408 38.6864C5.91606 38.5052 3.63803 38.2923 1.37359 37.9798C0.857301 37.9074 -0.0394169 37.2915 0.00134299 37.0877C0.141738 36.4264 0.490462 35.5207 1.02034 35.2716C3.92788 33.9129 6.88071 32.6448 9.87429 31.4945C15.5671 29.3025 21.2961 27.2056 27.0116 25.068C27.3105 24.9548 27.6547 24.8869 27.8902 24.6921C28.1121 24.5155 28.2162 24.1985 28.3748 23.9403C28.1302 23.7954 27.8902 23.5418 27.632 23.5191C25.2589 23.3108 22.8767 23.1795 20.5036 22.9394C19.7337 22.8625 18.5697 23.3878 18.3116 22.1514C18.0172 20.7429 19.1947 20.4259 20.2001 20.0681C25.3042 18.2656 30.3901 16.4133 35.5168 14.6788C49.8552 9.82835 64.1982 5.00057 78.5683 0.240721C79.6824 -0.130647 80.9958 0.0323923 82.214 0.0550367C86.1587 0.127499 90.1033 0.213547 94.048 0.358471C97.6892 0.494338 101.326 0.711724 104.963 0.906465C105.42 0.92911 105.909 0.938168 106.312 1.11479C106.629 1.25519 106.978 1.61297 107.041 1.92999C107.096 2.17908 106.81 2.63197 106.552 2.78595C105.927 3.15732 105.234 3.42905 104.55 3.69625C103.685 4.04045 102.934 4.39823 102.553 5.40364C102.368 5.89276 101.634 6.17355 101.041 6.63097L101.05 6.64002ZM63.1792 31.9247C64.4925 34.4609 65.67 36.7706 66.9019 39.0487C67.0378 39.3023 67.4907 39.4246 67.8167 39.5332C69.5377 40.0994 70.9281 39.2117 72.3456 38.4599C81.1316 33.8042 89.9177 29.1531 98.7037 24.4974C99.9265 23.8498 101.149 23.1976 102.377 22.5454C102.358 22.4141 102.34 22.2873 102.318 22.156C101.86 22.0654 101.403 21.9205 100.941 21.8887C99.7046 21.8072 98.4636 21.8072 97.2318 21.7212C90.2347 21.223 83.2376 20.7384 76.245 20.1723C75.0811 20.0772 74.5331 20.444 74.0711 21.4811C72.6355 24.7012 71.0775 27.8623 69.5966 31.0597C69.1482 32.0289 68.4825 32.4048 67.4046 32.2689C66.0958 32.0968 64.7733 32.0425 63.1792 31.9157V31.9247ZM31.5404 35.4618C36.0014 35.9464 40.2359 36.4219 44.4749 36.8386C44.8599 36.8748 45.512 36.6438 45.6479 36.3494C47.2556 32.8622 48.7864 29.3387 50.3307 25.8243C50.376 25.7202 50.3353 25.5753 50.3353 25.3126C48.9766 25.2084 47.6632 25.0816 46.3499 25.0318C46.0691 25.0227 45.7928 25.3035 45.4939 25.4032C44.6244 25.6975 43.7548 26.0055 42.8672 26.2274C42.3916 26.3497 41.8346 26.1957 41.3862 26.3678C39.2486 27.1785 37.1245 28.039 35.0231 28.9312C34.5884 29.1168 34.0766 29.4429 33.8955 29.8369C33.0621 31.6575 32.3375 33.5234 31.5359 35.4573L31.5404 35.4618ZM84.2566 12.917C85.4295 16.5039 86.4621 17.3146 89.7954 17.4459C90.3932 17.4686 90.9865 17.541 91.5798 17.5863C94.4375 17.7992 97.2952 18.0166 100.352 18.243C98.441 14.6742 96.634 11.2957 94.8043 7.86735C92.558 8.85917 90.3388 9.82835 88.1378 10.8292C87.8615 10.956 87.5219 11.1961 87.4449 11.4497C86.9739 13.0439 85.8145 13.2477 84.2611 12.917H84.2566ZM59.1349 24.7374C60.3033 26.8252 61.6076 29.144 62.998 31.6213C64.9771 27.5363 66.8476 23.6777 68.9037 19.4386C64.6873 19.5926 61.5442 21.1732 59.1394 24.7374H59.1349ZM58.1929 38.3331C56.1866 34.5787 54.3433 31.1367 52.3687 27.4457C50.8561 30.8514 49.4612 33.9854 48.0074 37.2598C51.4267 37.6221 54.6015 37.9572 58.1929 38.3331ZM83.6542 16.599C83.2013 15.8382 82.8345 15.2222 82.4676 14.6063C81.7883 13.4605 80.7421 13.3745 79.8771 14.4297C79.619 14.7422 79.5193 15.186 79.2612 15.494C78.8944 15.9197 78.446 16.2729 78.0973 16.599H83.6542Z" fill="#470814"/>
</svg>
