<?xml version="1.0" encoding="UTF-8"?>
<svg id="Layer_2" data-name="Layer 2" xmlns="http://www.w3.org/2000/svg" viewBox="0 0 479.62 457.62">
  <g id="Layer_1-2" data-name="Layer 1">
    <g>
      <g>
        <path d="m237.29,400.9s10.93,49.29,18.45,23.84c.9-3.04-.08-6.33-.11-9.5-.04-3.16-.08-6.4.53-9.47.77-3.87.49-7.6-.13-11.38-.77-4.75-.49-9.48.06-14.22.26-2.23,1.61-3.98,2.49-5.94,2.61-5.76,6.21-10.7,11.63-14.16,3.52-2.25,6.97-4.64,10.56-6.77,3.78-2.24,7.59-4.5,11.59-6.3,3-1.34,5.77-2.93,8.33-4.94,5-3.91,9.98-7.84,14.96-11.78,1.5-1.18,3.13-1.89,5.06-2.22,3.33-.58,6.62-1.44,9.9-2.27.82-.21,1.65-.61,2.3-1.13,1.97-1.54,4.25-2.42,6.52-3.34,1.65-.67,3.29-1.38,4.74-1.98.17-1.27.09-2.41.49-3.34.75-1.74.88-3.46.63-5.29-.18-1.31.04-2.45.82-3.65.78-1.2,1.75-2.06,2.84-2.89,5.69-4.32,11.41-8.59,17.03-13,3.63-2.85,6.97-6.07,10.65-8.85,2.36-1.78,3.78-4,4.97-6.61,1.21-2.68,2.67-5.28,4.27-7.75,1.69-2.59,3.7-4.98,5.54-7.48,1.3-1.77,2.4-3.57,1.53-5.98-.25-.68.09-1.7.42-2.45,1.79-4.18,3.69-8.3,5.46-12.49.67-1.58,1.22-3.23,1.59-4.91.39-1.74.41-3.55.75-5.3.35-1.81.39-3.57-.05-5.36-.52-2.1-1.01-4.2-1.54-6.3-.4-1.59-.84-3.16-1.3-4.85-1.54.01-2.9-.03-4.26.04-2.89.14-5.76.33-8.6-.49-.69-.2-1.58-.06-2.28.2-3.38,1.27-6.71,2.65-10.08,3.93-.78.3-1.76.74-2.45.52-2.04-.66-3.46.07-4.76,1.49-.39.42-.88.76-1.27,1.18-3.27,3.52-7.32,5.8-11.7,7.62-3.04,1.26-5.78,3.07-8,5.46-3.48,3.75-6.8,7.66-10.09,11.59-3.01,3.6-5.81,7.37-8.84,10.94-6.59,7.75-13.51,15.22-19.4,23.55-1.91,2.7-3.79,5.45-5.42,8.32-.94,1.66-1.93,3.22-3.28,4.53-1.55,1.51-3.13,3-4.81,4.36-.81.66-1.81,1.2-2.81,1.46-5.09,1.34-9.49,3.81-13.04,7.69-3.02,3.3-5.74,6.88-8.87,10.07-4.79,4.87-9.83,9.51-14.82,14.31-2.39-.34-2.49-.02-2.6-2.81-.2-4.9-.41-9.8-.48-14.7-.11-9-.45-18.02,1.13-26.95.28-1.59.75-3.04,1.6-4.42,1.59-2.58,3.08-5.22,4.59-7.84,1.27-2.2,2.77-4.19,4.75-5.84,2.77-2.31,5.64-4.55,8.1-7.16,2.76-2.93,5.18-6.19,7.63-9.39,3.25-4.25,6.86-8.13,10.85-11.7,2.24-2.01,4.91-3.54,6.74-6.03.64-.87,1.4-1.66,2.17-2.41,2.48-2.42,5.02-4.77,7.47-7.2,2.15-2.14,4.12-4.46,6.35-6.5,1.99-1.83,3.72-3.81,5.12-6.11,1.08-1.79,1.97-3.77,3.36-5.28,3.32-3.6,6.85-7.02,10.38-10.41,1.34-1.29,2.92-2.35,4.44-3.45.89-.64,1.27-1.45,1.45-2.52.39-2.27.93-4.51,1.38-6.76.3-1.48.9-3,.75-4.44-.59-5.67-1.43-11.31-2.15-16.96-.54-4.21-1.42-8.41-.67-12.69.04-.24-.09-.51-.16-.84-1.25.32-1.4,1.28-1.65,2.15-1.01,3.54-1.99,7.09-3.04,10.61-.26.88-.69,1.75-1.21,2.51-.8,1.17-1.74,2.26-2.63,3.36-.54.67-1.07,1.37-1.69,1.96-4.33,4.13-8.71,8.21-13.03,12.35-1.46,1.4-2.88,2.84-4.19,4.38-3.05,3.56-5.94,7.25-9.05,10.76-5.2,5.88-10.17,11.92-14.66,18.37-.78,1.12-1.67,2.17-2.4,3.32-2.99,4.68-5.94,9.39-8.89,14.09-1.3,2.08-2.67,4.12-3.86,6.26-2.3,4.17-4.42,8.44-6.76,12.58-2.88,5.09-5.36,10.36-7.83,15.65-1.54,3.29-2.59,6.88-5.27,9.55-1.39-.97-1.41-.97-1.09-2.35.53-2.32,1.17-4.62,1.61-6.96,1.03-5.46,2.21-10.9,2.87-16.41.72-5.94.68-11.97,1.41-17.9.81-6.53,1.19-13.07,1.55-19.62.05-.96.43-1.99.95-2.8,1.41-2.17,3.05-4.19,4.47-6.36,5.17-7.9,10.25-15.87,15.46-23.75,2.22-3.36,4.4-6.75,7.41-9.53,4.24-3.9,8.33-7.97,12.47-11.98,1.97-1.91,3.77-4.01,5.89-5.73,5.54-4.51,11.22-8.84,16.82-13.27.84-.66,1.71-1.36,2.35-2.21,2.07-2.74,4.59-5.02,7.38-6.93,2.03-1.4,2.84-3.33,3.53-5.48.21-.66.42-1.46.9-1.86,3.14-2.6,3.41-6.55,4.8-9.96.1-.25.04-.57.05-.86.09-1.42.13-2.85.28-4.27.2-1.86.52-3.71.72-5.58.15-1.46-.02-2.87-1.14-4.09-.34,0-.7-.05-1.04,0-4.41.71-8.81,1.42-13.21,2.19-1.49.26-2.95.94-4.42.94-1.6,0-2.96.43-4.34,1.07-.78.36-1.59.7-2.41.96-1.01.31-2.09.75-2.8-.56-1.26.85-2.4,1.6-3.53,2.38-2.91,2.01-5.74,4.14-8.73,6.01-3.8,2.38-7.58,4.74-10.8,7.91-1.23,1.21-2.49,2.4-3.76,3.58-3.6,3.33-7.32,6.54-10.79,10.01-5.17,5.15-9.76,10.83-13.67,16.99-1.89,2.97-3.3,6.23-4.94,9.36-.39.74-.78,1.48-1.13,2.15-.99-.12-1.57-.22-1.89-1.12-.91-2.58-1.92-5.12-3-7.63-.36-.84-.91-2.02-1.6-2.2-1.44-.38-1.87-1.42-2.48-2.46-.74-1.25-.46-2.5-.13-3.77.22-.84.46-1.67.64-2.52.68-3.24,1.18-6.54,2.05-9.73,2.54-9.24,3.93-18.63,3.92-28.21,0-2.3-.06-4.62.15-6.91.31-3.3.91-6.58,1.26-9.88.1-.96.07-2.13-.4-2.92-1.26-2.16-1.79-4.54-2.44-6.89-1.28-4.66-2.45-9.35-3.75-14-.56-2.01-1.21-4.02-3.04-5.35-.27-.2-.4-.59-.6-.89-1.63-2.46-3.2-4.96-4.91-7.37-.6-.86-.99-1.68-1.14-2.72-1.14-7.96-3.22-15.67-6.04-23.2-2.63-7.04-6.08-13.71-9.1-20.58-.28-.63-.68-1.2-1.03-1.79-.05,2.74.23,5.35.65,7.95.95,5.91,2.04,11.79,2.92,17.71.38,2.56.46,5.17.53,7.77.02.61-.35,1.51-.83,1.79-.79.46-1.68.17-2.23-.71-.11-.18-.24-.36-.38-.53-2.06-2.41-4.12-4.83-6.19-7.24-2.76-3.23-5.58-6.41-8.27-9.7-2.1-2.56-4.51-4.64-7.57-5.93-1.57-.66-3.19-1.01-5.32-.98,1.28,2.3,2.31,4.34,3.51,6.28.98,1.58,2.35,2.9,2.72,4.84.1.52.55,1.02.94,1.43,1.67,1.79,3.36,3.56,5.09,5.3,1.05,1.05,1.73,2.22,2.01,3.72.25,1.34.66,2.67,1.2,3.91,1.23,2.85,2.66,5.6,3.87,8.46.69,1.64,1.15,3.39,1.6,5.12.34,1.32.36,2.73.77,4.03,1.66,5.37,3.03,10.78,3.81,16.38.96,6.94,1.79,13.88,1.54,20.88-.18,5.19-.64,10.37-.98,15.56-.19,2.84.07,5.73-1.17,8.46-.66,1.46-1.05,1.82-2.59,1.24-1.01-.38-1.95-.95-2.97-1.3-1.01-.34-1.43-1-1.75-1.98-.96-3.02-2.2-5.96-3.03-9.01-.9-3.32-1.92-6.65-1.75-10.19.18-3.76-.03-7.5-.87-11.19-.43-1.89-.94-3.77-1.14-5.69-.84-8.18-1.56-16.37-2.39-24.55-.16-1.56-.46-3.17-1.05-4.61-1.81-4.45-4.47-8.37-7.94-11.72-2.75-2.66-5.84-4.73-9.64-5.5-3.6-.74-7.23-1.38-10.86-1.94-1.9-.3-3.84-.36-5.89-.54.08.62.06,1.14.21,1.59.86,2.52,1.69,5.04,2.66,7.52.63,1.63.7,3.15.19,4.84-.57,1.92-1.23,3.95-1.14,5.9.16,3.3-.81,6.29-1.81,9.27-1.15,3.43-2.22,6.85-2.87,10.41-.47,2.62-.69,5.14.74,7.55.28.48.37,1.09.54,1.64,1.24,3.79,2.96,7.37,5.1,10.72,3.84,6,8.72,11.09,13.94,15.89,1.59,1.46,3.34,2.87,4.5,4.64,1.52,2.31,2.2,5.13,4.37,7.01-1.92,1.72-3.51,3.34-3.9,5.83.42.42.81.84,1.24,1.21,4.6,3.95,9.3,7.77,14.37,11.09,1.75,1.15,2.1,2.45,1.74,4.38-.76,4.12-1.16,8.29-.89,12.5.05.74-.11,1.51-.18,2.26-.23.08-.46.16-.69.24-.45-.41-.96-.78-1.34-1.25-2.83-3.45-5.57-6.97-8.46-10.37-5.11-6-9.7-12.36-13.68-19.15-2.37-4.04-4.39-8.29-6.56-12.44-2.51-4.81-5.04-9.59-9.32-13.14-.83-.69-1.48-1.65-2.38-2.2-2.29-1.39-2.73-3.78-3.44-6.01-.46-1.44-.71-2.95-1.14-4.4-1.05-3.52-2.06-7.06-3.27-10.52-.41-1.19-.71-2.29-.64-3.55.14-2.38.16-4.79-.97-6.99-1.02-1.99-1.34-4.09-1.32-6.28.03-3.65-.85-7.15-1.68-10.66-.23-.98-.53-2.04-1.95-2.62-.26,1.94-.57,3.63-.7,5.34-.18,2.26-.76,4.35-1.84,6.38-.9,1.7-1.78,3.53-2.08,5.4-.68,4.27-.91,8.6-1.48,12.88-.31,2.35-.06,4.58.63,6.82.35,1.16.63,2.37.76,3.58.07.66-.06,1.5-.45,1.97-.21.26-1.21.05-1.75-.18-2.39-1.01-4.73-2.08-7.36-2.43-2.28-.3-4.52-.9-6.79-1.27-1.48-.24-2.99-.36-4.44.79.34,3.35.69,6.71,1.02,10.08.08.86.23,1.74.13,2.59-.17,1.52.27,2.84.95,4.14.87,1.66,1.72,3.33,2.54,5.02.25.51.67,1.25.48,1.6-.61,1.15.11,2.09.21,3.12.13,1.42.56,2.88.37,4.26-.57,4.2.43,8.01,2.33,11.69,1.59,3.08,3.09,6.2,4.65,9.29.52,1.04.91,2.05.64,3.29-.23,1.07.04,2.13.76,3.05,1.47,1.87,2.89,3.77,4.34,5.66.52.68.99,1.44,1.62,2.01,1.54,1.37,3.19,2.63,4.76,3.98,4.09,3.54,8.11,7.17,12.25,10.66,2.89,2.44,5.43,5.15,7.69,8.17,5.88,7.85,11.77,15.69,18.26,23.08,4.62,5.27,9.42,10.33,14.37,15.26,1.63,1.63,3.47,3.06,5,4.78,3.36,3.77,6.6,7.64,9.86,11.5,3.72,4.41,7.41,8.85,11.12,13.27,1.08,1.29,1.83,2.71,2.29,4.35.64,2.29,1.51,4.51,2.34,6.74.78,2.1,1.63,4.17,2.47,6.24.72,1.77.51,3.55.4,5.8-1.03-1.39-1.74-2.38-2.48-3.35-3.38-4.41-6.64-8.92-10.19-13.19-4.53-5.45-10.54-9.14-16.3-13.1-3.08-2.12-6.35-3.97-8.75-6.99-3.81-4.8-7.84-9.44-11.58-14.29-2.77-3.59-5.6-7.22-7.75-11.19-2.28-4.22-3.78-8.87-5.64-13.32-.41-1-.79-2.02-1.33-2.95-.89-1.55-1.84-1.89-3.6-1.62-2.4.38-4.19,1.83-6.03,3.24-.86.66-.98,1.39-.87,2.42.61,5.53,3.04,10.46,5.04,15.53.18.46.49.88.79,1.28,1.2,1.61,2.56,3.04,4.11,4.37,2.55,2.2,4.78,4.77,7.11,7.22,2.98,3.15,6.21,5.97,9.8,8.44,3.13,2.15,6.53,3.96,9.22,6.74,2.1,2.17,4.35,4.21,6.52,6.32,1.34,1.3,2.76,2.52,3.98,3.92,4.29,4.87,8.46,9.85,12.78,14.69,2.48,2.79,5.33,5.26,7.73,8.11,3.2,3.8,6.29,7.71,8.05,12.47.47,1.27,1.04,2.59,1.91,3.59,2.4,2.77,3.65,5.84,3.92,9.54.43,5.96,1.65,11.86,1.46,17.88-.12,3.9-.46,7.75-1.48,11.76-.65-.26-1.22-.37-1.65-.68-1.75-1.26-3.47-2.57-5.19-3.89-.39-.3-.8-.65-1.05-1.06-1.32-2.14-2.6-4.32-3.89-6.48-.89-1.48-1.85-2.93-2.65-4.46-1.76-3.39-3.73-6.71-5.06-10.26-1.53-4.11-2.57-8.41-3.62-12.68-1.64-6.67-3.57-13.23-6.72-19.37-1.06-2.07-2.1-4.12-4.4-5.13-.24-.11-.45-.35-.62-.58-1.38-1.85-2.86-3.63-4.08-5.58-1.6-2.56-2.99-5.26-4.47-7.9-.66-1.17-1.61-1.95-2.85-2.53-1.02-.47-1.99-1.13-2.83-1.88-1.83-1.62-3.47-3.47-5.37-5.01-3.18-2.58-6.43-5.14-10.44-6.39-1.93-.6-3.9-1.07-5.8-1.74-1.38-.48-2.64-.3-4.01.02-3.4.8-5.65,3.02-7.57,5.75-.94,1.34-1.99,2.6-3.01,3.92-1.88-.65-3.48-1.33-5.15-1.73-1.22-.3-2.62-.56-3.79-.26-1.19.31-2.27.3-3.39.1-1.56-.29-3.1-.67-4.65-1.02-3.45-.78-6.87-1.7-10.34-2.3-2.11-.36-4.36-.58-6.44-.24-2.1.35-4.14.28-6.22.26-2.3-.02-4.7-.19-6.86.4-2.63.72-5.2,1.32-7.86.88-2.87-.47-4.54,1.85-6.84,2.66-.74.26-1.3,1.09-1.91,1.68-.21.2-.49.48-.47.7.1,1.25-.92,1.67-1.62,2.33-.63.59-1.23,1.24-1.94,1.72-1.67,1.13-1.92,2.71-1.26,4.38.46,1.16,1.27,2.23,2.11,3.18.75.86,1.83,1.42,2.6,2.27.54.6,1.3,1.65,1.1,2.16-.68,1.7.45,2.38,1.36,3.27,1.23,1.21,2.64,2.29,3.65,3.66,1.38,1.88,3.13,3.08,5.19,4.07,8.23,3.92,16.76,7,25.49,9.59,10.71,3.18,21.39,6.5,32.1,9.69,1.71.51,2.59,1.51,3.25,3.09,1.04,2.53,2.2,5.02,3.49,7.43,2.72,5.09,5.55,10.12,8.33,15.18,1.25,2.28,2.4,4.61,3.73,6.84,1.59,2.66,3.29,5.26,5,7.84,1.31,1.99,2.67,3.94,4.05,5.88,2.8,3.94,5.68,7.82,8.41,11.81,2.82,4.1,5.52,8.29,8.27,12.44,3.58,5.41,7.45,10.66,10.69,16.27,3.96,6.86,8.61,13.12,13.93,18.97,2.3,2.53,4.38,5.22,6.24,8.08m19.56-47.79c.42-1.22,1.02-2.39,1.39-3.63,1.63-5.44,5.68-9.06,9.6-12.75.64-.61,1.6-1.02,2.48-1.18,2.17-.41,4.38-.64,7.03-1-.79,3.24-1.5,6.01-2.15,8.8-1.07,4.53-3.08,8.66-5.31,12.71-.86,1.57-1.5,3.26-2.25,4.9-1.81,3.98-4.52,7.28-7.6,10.39-1.28-.72-1.54-1.91-1.76-2.98-.72-3.45-1.29-6.94-1.97-10.4-.33-1.7,0-3.29.54-4.86m-14.52,33.21c.07-2.68-1.1-5.04-1.77-7.54-.55-2.06-1.3-4.15-1.39-6.24-.39-8.95-1.4-17.83-2.74-26.68-.73-4.84-1.86-9.63-2.8-14.44-.11-.54-.15-1.1-.05-1.74,3.07,2.74,6.7,4.81,7.81,9.35.98,4.02,1.68,8.01,2.05,12.12.66,7.26,1.58,14.48,2.4,21.72.77,6.74,1.13,13.51,1.06,20.3-.03,3.17.13,6.35.16,9.52,0,.81.23,1.82-1.19,2.09-.17-.26-.35-.43-.4-.62-1.39-5.89-3.3-11.69-3.14-17.84" style="fill: #231f20; stroke-width: 0px;"/>
        <path d="m34.41,242.42c-2.17.14-4.06.08-5.93.63-1.19.35-2.04-.6-1.72-1.79.09-.33.3-.62.41-.95.53-1.58.87-3.17.52-4.85-.12-.59-.2-1.2-.22-1.81-.03-.89.5-1.47,1.38-1.57.52-.06,1.07.04,1.55-.1.99-.28,2.1.04,3.01-.67.9-.71,2.05.44,3.15-.6.06-.2.24-.68.35-1.17.55-2.63,1.07-5.26,1.65-7.88.22-1.02.54-2.01.88-2.99.17-.48.51-.89.81-1.39,4.29.71,8.49,1.75,12.96,1.62.02.41.16.79.04,1.05-.95,2.03-.91,4.23-1.1,6.38-.2,2.33-.26,4.67-.39,7.2.53.1,1.09.28,1.64.28,1.92,0,3.82.08,5.65.68,1.1.37,2.18.23,3.18-.08.85,1.18.92,2.24.53,3.53-.47,1.57-.62,3.23-.84,4.87-.08.59,0,1.2.07,1.8.04.34.25.66.25,1,0,1.43-1.01,2.16-2.44,1.86-1.6-.34-3.22-.66-4.84-.86-.73-.09-1.51.12-2.23.18-.56,1.33-.53,2.58-.45,3.76.23,3.23-.22,6.41-.58,9.6-.27,2.41-.67,4.81-1.01,7.22-.06.43-.17.86-.18,1.29-.1,2.49.93,3.86,3.37,4.47.58.15,1.19.21,1.79.29.43.06.87.04,1.29.13,1.9.4,2.41,1.27,2.02,3.18-.21,1.01-.31,2.04-.45,3.07-.23,1.77-.85,3.18-2.89,3.45-.41.05-.84.26-1.19.5-2.54,1.76-5.49,2.62-8.38,3.51-1.96.6-4.1.73-6.16.81-1.95.07-3.37-1.24-4.71-2.49-1.81-1.7-2.66-3.89-2.66-6.31,0-4.59-.35-9.19.47-13.76.25-1.36.3-2.76.42-4.14.35-4.15.73-8.3,1.03-12.45.15-2.06.2-4.14-.05-6.46" style="fill: #231f20; stroke-width: 0px;"/>
        <path d="m20.51,212.61c-.47.55-.81.84-1.01,1.22-.46.88-1.21,1.19-2.14,1.25-.09,0-.17.02-.26.04-4.4.85-6.67,3.21-7.28,7.61-.2,1.41.12,2.75.65,4.15,2.16.36,4.3.16,6.43-.12.34-.05.66-.21,1-.27.53-.09,1.02.25,1.13.82.14.77.23,1.54.32,2.32.36,3.09.7,6.17,1.06,9.28-.95,1.12-1.86,2.27-2.86,3.33-.39.41-.98.81-1.52.87-1.63.19-3.25.45-4.92.2-2.56-.38-5.15-.59-7.92-.9-.09-.11-.39-.35-.49-.65-1.08-3.47-2.07-6.96-2.54-10.58-.47-3.63.07-7.08,1.91-10.28.82-1.43,1.67-2.84,2.54-4.25.36-.59.74-1.2,1.23-1.67,2.43-2.34,4.9-4.63,7.91-6.25,1.14-.62,2.22-1.37,3.35-2,1.33-.74,2.43-.23,2.68,1.22.27,1.53.48,3.07.73,4.67" style="fill: #231f20; stroke-width: 0px;"/>
      </g>
      <path d="m136.63,349.78c-1.88.3-3.17.63-4.47.69-2.95.15-5.9.17-8.85.25-2.29.06-4.58.16-6.88.19-1.95.03-2.63-.59-2.64-2.55,0-1.85.17-3.7.26-5.55.09-1.73.27-3.46.25-5.19-.02-1.24.42-1.68,1.65-1.73,6.87-.27,13.74-.65,20.61-.9,2.29-.08,4.59.19,6.88.12,2.06-.07,4.11-.37,6.17-.6,3.12-.35,4.95.53,5.26,3.99.71,7.99,1.32,15.97.38,24-.5,4.21-.58,8.47-.81,12.7-.05.89.07,1.79.16,2.68.12,1.2-.91,2.59-2.14,2.58-2.8-.02-5.6-.07-8.39-.3-1.38-.11-2.08-1.15-2.2-2.57-.36-4.29-.75-8.58-1.12-12.86-.03-.32-.07-.64-.17-1.5-.7,1.25-1.18,2.08-1.64,2.92-2.48,4.54-5.18,8.95-9.19,12.29-1.57,1.31-3.58,2.22-5.52,2.94-2.13.79-4.39,1.41-6.65,1.65-5.11.56-10.28,1.29-15.21-1.06-3.22-1.53-6.66-2.7-9.63-4.6-3.83-2.45-7.07-5.68-9.11-9.89-1.66-3.42-3.6-6.74-4.85-10.31-1.46-4.16-2.33-8.52-3.42-12.81-1.05-4.14-.3-8.25.35-12.35.86-5.42,1.57-10.89,3.72-16.01,1.55-3.7,4.07-6.66,7.39-8.93.92-.63,1.88-1.25,2.64-2.04,3.13-3.29,7.46-4.42,11.29-6.47,4.18-2.24,8.69-3.52,13.34-4.3.6-.1,1.21-.08,1.82-.09,3.34-.07,6.75-.61,9.99-.08,5.82.96,11.35,2.91,15.83,7.1,1.18,1.1,2.54,2.04,3.92,2.9,3.24,2.03,4.84,5.3,6.63,8.45,1.04,1.83,2.18,3.6,3.13,5.47.25.49-.04,2.09-.36,2.5-2,2.5-2.5,2.69-4.58,5.13-1.96,2.31-4.56,4.08-7.35,5.13-.84.32-3.61.23-4.02-.97-.86-2.47-1.31-3.6-2.14-6.08-1.36-4.07-3.44-7.79-7.54-9.41-3.08-1.22-6.53-1.5-9.81-2.19-3.46-.73-6.63.23-9.74,1.65-2.22,1.01-4.47,2-6.78,2.8-2.19.76-5.14,4.88-5.86,6.77-1.9,5.02-2.07,7.67-3.37,12.86-.59,2.34-.07,5.09.44,7.55.61,2.93,1.49,5.87,2.7,8.61,1.86,4.24,4.85,7.6,9.07,9.75,1.24.63,2.4,1.45,3.56,2.22,4,2.65,8.4,2.73,12.78,1.6,2.5-.65,4.91-1.9,7.16-3.23,3.34-1.98,4.73-5.42,5.87-8.93.38-1.15.7-2.31,1.21-4.01Z" style="fill: #231f20; stroke-width: 0px;"/>
      <path d="m235.72,445.14c-1.28-2.73-2.66-5.42-3.83-8.2-1.08-2.57-1.84-5.28-2.91-7.86-2.31-5.56-4.77-11.06-7.11-16.61-1.76-4.17-3.45-8.37-5.14-12.57-.42-1.04-.7-2.13-1.08-3.18-.5-1.36-.94-2.74-1.58-4.03-1.46-2.95-3.13-5.79-4.51-8.77-1.94-4.19-3.69-8.46-5.52-12.69-.39-.9-.73-1.82-1.16-2.9-1.19-.31-2.57-.9-3.98-.98-2.11-.12-4.24.13-6.36.18-2.07.05-4.16-.05-6.21.14-.66.06-1.52.71-1.84,1.33-1.18,2.27-2.23,4.61-3.21,6.98-2.2,5.26-4.38,10.54-6.48,15.84-1.07,2.71-1.88,5.52-2.97,8.22-1.82,4.51-3.87,8.94-5.66,13.47-2.23,5.63-4.26,11.33-6.44,16.97-2.65,6.84-5.39,13.65-8.07,20.48-.5,1.27.17,2.12,1.57,2.02.44-.03.88-.17,1.32-.16,2.62.02,5.24-.07,7.85.14,1.75.14,3.45.76,5.18,1.1.91.18,1.86.15,2.77.35,1.2.27,1.53-.14,1.66-1.35.17-1.69.42-3.44,1.07-4.99,2.11-5.01,4.39-9.95,6.67-14.9.2-.42.85-.93,1.26-.91,2.9.14,5.8.5,8.7.63,6.2.28,12.41.45,18.61.7.56.02,1.39.21,1.6.59,1.24,2.32,2.46,4.67,3.44,7.11,1.19,2.95,2.07,6.03,3.25,8.99.29.73,1.11,1.55,1.85,1.76,3.98,1.15,7.96,2.19,12.23,1.2,1.89-.44,3.95-.16,5.93-.16.48,0,1.32.38,1.38.26.31-.61.75-1.44.55-1.96-.83-2.13-1.87-4.17-2.84-6.24Zm-46.33-29.28c-1.14.01-2.29,0-3.46,0,1.56-8.84,3.4-17.36,7.63-25.63,1,3.01,2.8,6.84,3.54,9.56l3.37,15.96c-3.19,0-7.9.08-11.09.11Z" style="fill: #231f20; stroke-width: 0px;"/>
      <path d="m325.69,426.4c-4.13,0-8.26,0-12.39,0-2.69,0-5.38-.04-8.07-.03-1.3,0-1.45-.83-1.39-1.81.18-2.91.41-5.81.55-8.72.08-1.67.01-3.35.01-5.14.23-.05.51-.21.74-.16,4.33,1.06,8.66.32,13,.14,2.72-.11,5.46.14,8.19.13,2.13-.01,4.25-.16,6.37-.3,2.68-.18,5.35-.56,8.03-.61,2.83-.06,4.06,1.3,3.94,4.11-.17,4.01-.46,8.01-.61,12.02-.09,2.34-.03,4.69.03,7.04.13,4.85.31,9.7.45,14.55.06,2.11.17,4.22.06,6.32-.08,1.5-1.11,2.04-2.61,1.89-2.5-.26-5.03-.3-7.51-.69-.73-.11-1.73-.98-1.92-1.69-.76-2.73-1.27-5.54-1.84-8.32-.15-.7-.2-1.42-.32-2.31-1.38,1.55-2.5,3.06-3.87,4.31-5.81,5.33-12.49,9.08-20.35,10.33-2.06.33-4.26.09-6.35-.21-3.94-.57-7.84-1.44-11.77-2.07-4.51-.73-7.79-3.44-10.99-6.42-2.78-2.6-4.52-5.83-6.1-9.19-2.56-5.43-3.28-11.29-3.81-17.16-.68-7.56-.41-15.11.72-22.62.74-4.9,2.31-9.69,5.5-13.37,3.36-3.87,7.06-7.58,11.85-10.01,4.47-2.26,9.19-3.73,13.86-5.43,6.54-2.4,13.03-1.77,19.68-.46,3.95.78,6.83,3.09,9.89,5.26,2.54,1.81,5.18,3.57,7.38,5.75,2.16,2.14,3.93,4.7,5.65,7.22,1.36,1.99,2.45,4.19,3.53,6.35.16.32-.22,1.16-.59,1.47-2.1,1.77-4.27,3.45-6.42,5.15-2.15,1.7-4.31,3.4-6.5,5.04-.4.3-1.21.58-1.48.39-.53-.38-1-1.06-1.16-1.7-.8-3.2-1.35-6.48-3.56-9.14-2.32-2.79-5.3-4.65-8.6-5.98-5.33-2.15-10.91-2.41-16.36-.88-7.23,2.04-12.59,6.61-13.17,14.52-.31,4.23-.56,8.46-.93,12.69-.13,1.49-.74,2.96-.7,4.43.05,1.77.59,3.52.87,5.28,1.05,6.62,5.51,10.09,11.38,12.16,3.96,1.4,7.93.51,11.88-.25,5.6-1.07,10.32-3.68,14.06-7.97.88-1.01,1.45-2.3,2.16-3.45-.14-.15-.28-.3-.42-.45Z" style="fill: #231f20; stroke-width: 0px;"/>
      <path d="m427.27,403.79c-9.29,1.5-18.58,2.98-27.87,4.51-3.71.61-7.41,1.27-11.09,2-3.24.65-6.45,1.43-9.67,2.16-.27.06-.55.18-.82.15-.8-.09-3.38-2.8-3.49-3.66-.95-7.4-1.84-14.82-2.84-22.21-.92-6.79-2.09-13.54-2.9-20.34-.96-8.01-1.48-16.08-2.56-24.07-.66-4.87-1.99-9.64-3.07-14.45-.3-1.34.07-2.12,1.4-2.27,6.01-.68,12.04-1.26,18.04-2.02,4-.5,7.97-1.21,11.95-1.87,5.25-.87,10.47-1.95,15.74-2.63,3.92-.5,7.9-.57,11.86-.71,1.06-.04,1.82.57,1.94,1.86.26,2.79.63,5.56,1.02,8.33.09.65.45,1.26.66,1.89.78,2.31-.04,3.64-2.37,4.12-2.63.55-5.22,1.37-7.87,1.82-7.18,1.22-14.38,2.33-21.59,3.41-2.44.37-4.9.56-7.36.78-1.43.13-2.12.64-1.88,2.24.56,3.81,1,7.64,1.48,11.46.13,1,.69,1.39,1.64,1.13,5.88-1.57,11.86-1.41,17.88-1.5,4.64-.07,9.44-.05,13.77-2.42,1.3-.71,1.97.54,2.29,1.53.54,1.7,1.02,3.45,1.24,5.22.32,2.61.44,5.24.54,7.87.05,1.23-.09,2.34-1.74,2.75-2.54.63-4.97,1.71-7.51,2.34-5.06,1.26-10.15,2.38-15.24,3.48-2.62.57-5.26.98-7.9,1.47-1.51.28-2.1,1.29-1.87,2.75.61,3.79,1.13,7.59,1.71,11.38.15.96.65,1.66,1.71,1.28,3.22-1.16,6.72-.71,9.89-1.51,4.26-1.07,8.54-.94,12.79-1.49,5.15-.67,10.36-.91,15.54-1.36.55-.05,1.15-.09,1.61-.35,1.55-.84,2.23-.6,2.44,1.09.37,3,.67,6.01,1.03,9.01.22,1.8.19,3.42-.98,5.07-.59.83-.99,1.04-1.87,1.12-1.9.18-3.78.51-5.66.78,0-.05-.02-.1-.03-.15Z" style="fill: #231f20; stroke-width: 0px;"/>
      <path d="m426.88,210.01c4.19.54,8.37,1.07,12.56,1.61,1.18.15,1.62.88,1.57,1.99-.18,4.02-.37,8.04-.57,12.06-.21,4.18-.45,8.36-.67,12.54-.26,4.77-.57,9.54-.78,14.32-.2,4.53-.26,9.07-.45,13.6-.16,3.81-.4,7.61-.66,11.41-.14,2.06-.04,2.16,1.99,2.25,3.85.17,7.7.48,11.55.59,1.78.05,3.57-.43,5.34-.36,3.51.13,7,.46,10.51.71,3.56.25,7.12.66,10.68.64,1.48,0,1.7.62,1.68,1.59-.06,2.79-.22,5.59-.4,8.38-.11,1.62-.38,3.22-.5,4.84-.12,1.64-1.42,1.99-2.49,1.75-5.37-1.17-10.82-.83-16.23-1.04-6.55-.25-13.11-.48-19.67-.7-5.49-.18-10.97-.31-16.46-.49-1.34-.04-2.69-.07-3.99-.34-.5-.1-1.12-.82-1.22-1.34-.26-1.25-.39-2.57-.31-3.84.58-9.45,1.32-18.89,1.81-28.34.41-7.79.48-15.59.83-23.38.19-4.2.73-8.38.98-12.58.27-4.67.42-9.35.56-14.03.04-1.42.87-2.19,2.34-1.99.67.09,1.34.17,2,.26,0-.03,0-.07.01-.1Z" style="fill: #231f20; stroke-width: 0px;"/>
    </g>
  </g>
</svg>