<?xml version="1.0" encoding="UTF-8"?>
<svg id="Layer_1" data-name="Layer 1" xmlns="http://www.w3.org/2000/svg" viewBox="0 0 100 100">
  <path d="m58.55,47.45c-2.21,2.69-4.1,5.14-6.16,7.43-2.53,2.81-5.27,5.44-7.81,8.24-.95,1.05-1.69,2.32-2.34,3.59-.48.94-.61,2.05-.99,3.06-1.26,3.31-3.25,4.87-6.72,4.62-6.73-.48-13.44-1.21-20.16-1.86-.8-.08-1.58-.38-2.3-.56-.44-2.66,2.16-5.41-.44-7.6,5.81-5.66,11.79-11.26,17.51-17.12,6.53-6.69,12.83-13.59,19.2-20.44,1.49-1.6,1.52-1.67,2.88.13.15.2.27.44.46.6,5.98,5.11,9.46,12.37,15.3,17.61,6.95,6.23,13.78,12.6,20.67,18.91.18.17.45.24.72.38-1.81,1.41-2.04,3.07-1,5.61.63,1.56-.42,3.55-2.05,3.6-7.93.27-15.87.48-23.88.7-.8-4.73-1.74-9.05-2.21-13.42-.46-4.3-.45-8.65-.67-13.47Z" style="stroke-width: 0px;"/>
</svg>