<?xml version="1.0" encoding="UTF-8"?>
<svg id="Layer_1" data-name="Layer 1" xmlns="http://www.w3.org/2000/svg" viewBox="0 0 100 100">
  <path d="m32.42,91.19c-1.54-15.02-6.74-29-9.66-43.49-.37-1.85-.69-3.72-1-5.41,2.95-.69,5.76-1.31,8.55-2.03.5-.13,1.32-.75,1.27-.99-.77-3.67,1.33-6.84,1.76-10.3.71-5.77,1.92-11.48,2.92-17.21.26-1.49.95-2.64,2.56-2.91,1.55-.27,2.25.87,2.97,1.93,3.12,4.62,6.16,9.29,9.42,13.81.99,1.36,2.66,2.21,3.91,3.41.63.6,1.23,1.4,1.48,2.23,1.22,3.92.7,3.39,4.45,2.49,1.41-.34,2.86-.64,4.2-1.18,1.53-.63,2.32-.03,2.66,1.33.8,3.12,1.51,6.26,2.23,9.4,2.42,10.48,4.68,20.99,7.29,31.43,1.36,5.48,1.58,5.25-3.85,6.64-13.11,3.36-26.18,6.88-39.27,10.33-.6.16-1.2.34-1.89.54Zm19.83-56.36c-.64-4.53-2.25-8.38-4.62-11.96-2.65-4.01-5.21-8.07-7.81-12.11-.86-1.34-1.66-.85-2.31.14-.29.45-.4,1.06-.46,1.61-.62,6.04-1.39,12.06-1.74,18.12-.15,2.68.55,5.41.9,8.35,5.65-1.46,10.77-2.79,16.04-4.15h0Z" style="stroke-width: 0px;"/>
</svg>