<svg width="85" height="40" viewBox="0 0 85 40" fill="none" xmlns="http://www.w3.org/2000/svg">
<path d="M48.9758 23.9236C48.9546 24.1422 48.9242 24.2637 48.9333 24.379C49.1793 26.9814 47.8796 27.7739 46.0577 27.9683C43.7013 28.2203 42.1223 29.4926 40.6678 31.1354C39.2801 32.7022 37.446 33.5646 35.533 34.2873C35.3053 34.3724 35.0654 34.4543 34.868 34.5879C33.2738 35.6659 31.6887 36.7591 30.0976 37.8431C28.5459 38.8968 26.7422 38.7511 25.0053 38.8391C20.4869 39.0669 15.9654 39.2855 11.441 39.4252C10.3569 39.4586 9.22125 39.3189 8.18578 39.0061C6.06931 38.3685 3.9923 37.582 1.92441 36.7925C1.61771 36.6771 1.25029 36.2216 1.23814 35.9088C0.946635 28.9946 0.700674 22.0804 0.44864 15.1661C0.415238 14.2127 0.360579 13.2561 0.427384 12.3087C0.451676 11.9474 0.694601 11.4555 0.989147 11.2763C4.13806 9.3481 7.31429 7.4624 10.4966 5.59188C10.9096 5.34895 11.4167 5.12425 11.8782 5.12121C14.9178 5.10906 17.6447 3.96428 20.3927 2.88327C22.1297 2.20004 23.8878 1.57451 25.6035 0.84574C26.3322 0.536011 26.9578 0.305233 27.641 0.894325C28.3273 1.48645 28.6886 2.21219 28.4821 3.09886C28.303 3.87015 28.06 4.64447 27.723 5.3611C26.8485 7.2134 25.4486 8.57681 23.5447 9.34506C22.1782 9.89771 20.7571 10.3168 19.3755 10.833C18.8259 11.0395 18.3188 11.3492 17.7904 11.6103C17.8026 11.7409 17.8147 11.8684 17.8238 11.999C19.6032 12.3998 21.3614 12.9312 23.1621 13.1742C26.6723 13.6509 26.6845 13.5902 29.5874 11.5192C31.3851 10.2348 33.1159 8.90172 34.7435 7.36826C37.8651 4.42584 41.2964 1.79922 45.6781 0.997568C47.3543 0.690876 49.1095 0.815374 50.8251 0.706058C54.1046 0.4935 57.381 0.20199 60.6635 0.0471258C62.528 -0.0409343 64.4137 -0.00449564 66.2751 0.147332C67.4108 0.241465 68.3764 0.873069 68.8592 1.99659C69.7246 4.00679 69.2388 5.44612 67.1587 6.12935C65.4826 6.67896 63.6819 6.88545 61.9237 7.13445C60.6241 7.31664 59.3001 7.31968 57.9853 7.40166C57.9337 7.48365 57.8851 7.56564 57.8335 7.64763C58.1918 7.96343 58.5076 8.35514 58.9145 8.58288C60.9976 9.73678 63.2993 10.171 65.6314 10.4352C66.8824 10.5749 68.1517 10.59 69.4119 10.6356C70.3441 10.669 71.1093 10.3532 71.747 9.62139C73.6205 7.46847 75.8403 5.62832 77.4223 3.20818C78.3151 1.84477 80.966 1.19191 82.211 2.16664C82.797 2.62516 82.9488 2.99866 82.6482 3.62115C82.4114 4.11307 82.1776 4.61107 81.9012 5.19105C82.3446 5.3034 82.7211 5.38843 83.0946 5.49471C84.3123 5.83177 84.5187 6.31154 83.9266 7.45025C83.7566 7.77516 83.5288 8.07274 83.3375 8.38551C82.5693 9.63961 81.8739 10.9453 81.0206 12.1387C80.0398 13.5112 78.9102 14.7775 77.8656 16.1044C75.7826 18.7523 72.8887 20.304 69.9463 21.6826C68.5707 22.3263 66.9097 22.5085 65.3581 22.5996C61.6352 22.8183 57.9458 23.1948 54.2716 23.875C52.5833 24.1877 50.7917 23.9296 48.9667 23.9296L48.9758 23.9236Z" fill="#470814"/>
</svg>
