<?xml version="1.0" encoding="UTF-8"?>
<svg id="Layer_2" data-name="Layer 2" xmlns="http://www.w3.org/2000/svg" viewBox="0 0 156.45 185.38">
  <g id="Layer_1-2" data-name="Layer 1">
    <g>
      <path d="m126.48,146.73c-7.9-4.3-11.2,1.61-14.92,8.49-4.12,7.63-10.77,13.29-19.02,16.14-4.32,1.49-6.59,3.91-7.96,7.9-1.05,3.06-2.41,6.11-6.31,6.12-3.93.01-5.26-3.11-6.29-6.13-1.37-4.01-3.71-6.29-7.95-7.88-10.42-3.92-17.69-11.7-22.27-21.75-1.48-3.24-2.78-4.42-6.53-3.51-5.72,1.4-11.59,1.02-17.23-.91-13.78-4.71-20.74-18.2-16.97-32.89,2.39-9.35,7.57-16.94,14.89-23.09,7.87-6.61,16.73-11.47,26.65-14.21,2.34-.65,3.29-.91,2.28-3.82-6.25-18.01-.78-33.85,15.28-44.05,2.64-1.68,2.5-3.04,1.28-5.12-3.31-5.62-6.74-11.12-13.35-13.52-2.82-1.02-4.8-2.88-3.35-6.05,1.43-3.15,4.12-2.74,6.82-1.59,8.6,3.65,14.42,10.03,17.78,18.58,1.05,2.66,2.34,2.77,4.99,3.11,8.6,1.11,13.6-1.8,16.92-10.07,2.3-5.73,8.06-9.12,13.86-11.62,2.69-1.16,5.36-1.57,6.83,1.59,1.53,3.26-.62,4.97-3.36,6-6.56,2.46-10.03,7.91-13.34,13.54-1.29,2.19-1.16,3.53,1.36,5.15,15.97,10.3,21.43,26.25,15.1,44.09-1.06,2.98.09,3.12,2.33,3.8,13.52,4.05,25.34,10.84,34.19,22.12,3.43,4.37,5.89,9.26,7.23,14.65,4.87,19.49-7.55,35.16-28.92,34.93Zm-26.33-65.64c-3.65.18-7.11.44-10.46,1.62-5.74,2.02-6.54,3.09-5.22,9.17,2.62,12.05,8.16,22.76,15.55,32.54,6.63,8.76,15.77,13.03,26.51,13.94,15.05,1.27,24.41-9.72,20.87-24.37-1.27-5.26-3.81-9.98-7.5-13.89-10.81-11.48-24.06-18.01-39.76-19.01Zm-45.14.12c-14.08.9-27.25,7.24-38.04,18.5-4.09,4.27-6.75,9.45-8.08,15.24-2.73,11.88,3.59,21.59,15.65,23.08,12.88,1.59,23.47-3.32,31.65-13.21,6.31-7.63,10.67-16.42,13.93-25.72,4.84-13.81,1.37-18.32-15.12-17.89Zm23.23,70.13c8.8-.15,16.61-2.94,23.17-8.85.99-.89,3.52-1.65,1.78-3.78-1.18-1.44-2.7-2.02-4.84-1.16-3.21,1.29-6.58,2.33-9.97,2.99-10.18,2-20.2,1.14-29.79-2.83-2.6-1.08-4.5-.4-5.56,1.36-1.05,1.74,1.31,2.68,2.43,3.68,6.46,5.8,14.19,8.33,22.77,8.58Zm-15.54-20.72c9.06,3.57,18.29,3.43,27.73,1.25,3.62-.84,3.55-1.76,1.65-4.73-2.43-3.81-5.11-5.59-9.64-4.62-1.91.41-4.06.49-5.95.06-6.73-1.52-11.11,1.03-13.79,8.04Zm-7.17,23.85c15.16,15.74,34.72,15.41,45.12-.42-7.87,2.96-15.26,6.39-22.72,6.04-7.54-.35-14.94-3.62-22.4-5.61Zm22.75-53.6c-.91,2.32-1.37,3.55-1.88,4.77-.57,1.38-1.17,2.75-1.77,4.12q-2.12,4.8,3.38,4.79,5.95,0,3.71-5.32c-1.01-2.41-1.99-4.83-3.44-8.36Z" style="fill: #070604; stroke-width: 0px;"/>
      <path d="m100.15,81.09c15.7,1,28.95,7.52,39.76,19.01,3.68,3.91,6.22,8.63,7.5,13.89,3.54,14.64-5.82,25.63-20.87,24.37-10.75-.91-19.88-5.18-26.51-13.94-7.39-9.77-12.94-20.49-15.55-32.54-1.32-6.08-.52-7.16,5.22-9.17,3.35-1.18,6.81-1.44,10.46-1.62Z" style="fill: #faebc7; stroke-width: 0px;"/>
      <path d="m55.01,81.21c16.49-.43,19.96,4.08,15.12,17.89-3.26,9.3-7.62,18.09-13.93,25.72-8.18,9.89-18.77,14.8-31.65,13.21-12.06-1.49-18.38-11.2-15.65-23.08,1.33-5.79,3.99-10.97,8.08-15.24,10.78-11.27,23.95-17.6,38.04-18.5Z" style="fill: #faebc7; stroke-width: 0px;"/>
      <path d="m78.24,151.34c-8.57-.25-16.3-2.79-22.77-8.58-1.12-1-3.48-1.94-2.43-3.68,1.06-1.76,2.96-2.43,5.56-1.36,9.58,3.97,19.61,4.83,29.79,2.83,3.39-.67,6.76-1.7,9.97-2.99,2.14-.86,3.66-.28,4.84,1.16,1.74,2.12-.79,2.88-1.78,3.78-6.56,5.91-14.37,8.71-23.17,8.85Z" style="fill: #edb61a; stroke-width: 0px;"/>
      <path d="m62.7,130.62c2.68-7,7.06-9.56,13.79-8.04,1.89.43,4.04.35,5.95-.06,4.54-.97,7.21.81,9.64,4.62,1.89,2.97,1.97,3.9-1.65,4.73-9.44,2.18-18.67,2.31-27.73-1.25Z" style="fill: #edb61a; stroke-width: 0px;"/>
      <path d="m55.53,154.47c7.46,1.99,14.86,5.26,22.4,5.61,7.46.35,14.86-3.08,22.72-6.04-10.4,15.84-29.96,16.17-45.12.42Z" style="fill: #edb61a; stroke-width: 0px;"/>
      <path d="m78.28,100.87c1.45,3.53,2.43,5.96,3.44,8.36q2.23,5.31-3.71,5.32-5.5,0-3.38-4.79c.6-1.37,1.2-2.74,1.77-4.12.5-1.22.97-2.45,1.88-4.77Z" style="fill: #edb61a; stroke-width: 0px;"/>
    </g>
  </g>
</svg>