<?xml version="1.0" encoding="UTF-8"?>
<svg id="Layer_2" data-name="Layer 2" xmlns="http://www.w3.org/2000/svg" viewBox="0 0 24.09 30.6">
  <g id="Layer_1-2" data-name="Layer 1">
    <g>
      <path d="m3.98,23.4c-3.05,0-4.62-2.11-3.73-4.73.93-2.72,3.13-4.08,5.67-4.98,1.36-.49,2.78-.66,4.21-.2,1.13.36,1.38.75,1.11,1.88-.55,2.25-1.54,4.3-3.08,6.03-1.17,1.31-2.72,1.9-4.17,2Z" style="fill: #030303; stroke-width: 0px;"/>
      <path d="m20.15,23.4c-1.53-.11-3.13-.74-4.34-2.16-1.45-1.7-2.41-3.67-2.94-5.83-.29-1.18-.04-1.56,1.13-1.94.89-.29,1.79-.29,2.69-.14,2.45.41,4.51,1.54,6.13,3.42.5.59.85,1.27,1.07,2.02.75,2.57-.77,4.61-3.75,4.62Z" style="fill: #030303; stroke-width: 0px;"/>
      <path d="m16.96,9.56c-.01.44-.03.87-.16,1.3-.38,1.31-.44,1.36-1.79,1.49-.94.09-1.85.32-2.59.95-.25.21-.46.23-.73.02-.92-.75-2.01-1.01-3.16-.98-.52.01-.73-.23-.92-.62-.88-1.83-.54-4.02.86-5.52,1.34-1.43,3.52-1.94,5.3-1.24,1.93.76,3.17,2.56,3.18,4.59Z" style="fill: #030303; stroke-width: 0px;"/>
      <path d="m6.66,23.52c3.59,2.57,7.18,2.57,10.75.02-.06,2.12-2.73,4.43-5.14,4.52-2.6.09-5.36-2.09-5.61-4.54Z" style="fill: #070604; stroke-width: 0px;"/>
      <path d="m16.4,23.07c-2.7,1.96-6.42,1.93-8.66-.02.02-.04.04-.09.07-.13.97-1.36,2.3-1.42,3.79-1.12.83.16,1.7.02,2.53-.18.47-.11.8-.07,1.13.35.31.4.74.71,1.15,1.1Z" style="fill: #090909; stroke-width: 0px;"/>
      <path d="m12.04,15.97c.55,1.79,1.26,3.26,2.16,4.71-1.47.33-2.84.33-4.31,0,.89-1.46,1.63-2.91,2.15-4.71Z" style="fill: #090909; stroke-width: 0px;"/>
      <path d="m7.11,0c.3.14.68.29,1.03.49,1.16.69,1.86,1.75,2.32,2.98.12.31.1.52-.28.6-.26.06-.46.21-.6-.21-.45-1.37-1.29-2.39-2.67-2.92-.25-.1-.43-.28-.37-.56.05-.24.23-.36.57-.38Z" style="fill: #090909; stroke-width: 0px;"/>
      <path d="m17.58.43c-.01.29-.17.43-.39.51-1.38.53-2.22,1.57-2.67,2.93-.14.44-.37.25-.62.2-.31-.07-.4-.21-.29-.52.57-1.6,1.53-2.82,3.16-3.45.42-.16.68-.07.8.34Z" style="fill: #090909; stroke-width: 0px;"/>
      <path d="m11.02,28.99c.5,0,.93.02,1.36,0,.5-.02.76.08.43.62-.22.36-.21.96-.73.99-.6.03-.57-.63-.8-1-.11-.18-.18-.39-.27-.61Z" style="fill: #090909; stroke-width: 0px;"/>
    </g>
  </g>
</svg>